<svg width="169" height="134" fill="none" xmlns="http://www.w3.org/2000/svg"><g clip-path="url(#clip0)"><path d="M7.042 119.004h7.745v7.746a6.336 6.336 0 006.338 6.337h140.833a6.337 6.337 0 006.338-6.337V44.362a6.34 6.34 0 00-6.338-6.337h-7.746v-7.746a6.335 6.335 0 00-6.337-6.337H97.527V3.64A2.816 2.816 0 0094.71.824H62.903a2.816 2.816 0 00-2.816 2.817v20.3H7.041A6.337 6.337 0 00.704 30.28v82.388a6.34 6.34 0 006.338 6.337z" fill="#F6F0E1"/><path d="M84.148 26.758h63.727a3.523 3.523 0 013.521 3.521v85.909H7.042a3.519 3.519 0 01-3.521-3.521V30.279a3.52 3.52 0 013.52-3.52h55.862" stroke="#000" stroke-width="7.042" stroke-linecap="round" stroke-linejoin="round"/><path d="M165.479 44.362v82.388a3.52 3.52 0 01-3.52 3.521H21.125a3.522 3.522 0 01-3.52-3.521v-10.562h130.27a3.519 3.519 0 003.521-3.521V40.842h10.563a3.52 3.52 0 013.52 3.52z" fill="#000" stroke="#000" stroke-width="7.042" stroke-linecap="round" stroke-linejoin="round"/><path d="M84.148 3.64H62.903v50.116h21.245V3.641z" stroke="#000" stroke-width="7.042" stroke-linecap="round" stroke-linejoin="round"/><path d="M62.903 37.088h21.245" stroke="#000" stroke-width="4.929" stroke-linecap="round" stroke-linejoin="round"/><path d="M98.231 74.29h30.632m-106.153 0h54.044m37.497 19.54h14.611m-66.662 0h36.03m-75.52 0h23.94" stroke="#000" stroke-width="7.042" stroke-miterlimit="10"/><path d="M94.71 3.64H84.148v23.118H94.71V3.641z" fill="#000" stroke="#000" stroke-width="7.042" stroke-linecap="round" stroke-linejoin="round"/></g><defs><clipPath id="clip0"><path fill="#fff" d="M0 0h169v133.792H0z"/></clipPath></defs></svg>