<svg width="100" height="63" fill="none" xmlns="http://www.w3.org/2000/svg"><path d="M97.963 7.284h-5.247V2.037a.95.95 0 00-.926-.926H9.136c-.432 0-.803.185-1.111.432L1.173 8.457c-.309.308-.432.679-.432 1.11v44.507a.95.95 0 00.926.926h5.247v5.247a.95.95 0 00.925.926h90.124a.95.95 0 00.926-.926V8.21a.95.95 0 00-.926-.926z" fill="#F6F0E1"/><path d="M9.135 2.037h82.593v52.037H1.604V9.568a.56.56 0 01.186-.432l6.913-6.914a.667.667 0 01.432-.185z" stroke="#000" stroke-width="3.179" stroke-linecap="round" stroke-linejoin="round"/><path d="M97.962 8.21v52.037H7.838v-6.173H91.79V8.21h6.173z" fill="#000" stroke="#000" stroke-width="3.179" stroke-linecap="round" stroke-linejoin="round"/><path d="M84.258 2.037H9.135m75.061 13.025H9.073m75.062 13.024H9.01M84.074 41.05H8.95m75.062 13.024H8.95" stroke="#000" stroke-width="3.179" stroke-linecap="round" stroke-linejoin="round"/><path d="M21.357 19.938h2.16c.37 0 .618.247.618.617v2.161c0 .37-.247.617-.618.617h-2.16c-.37 0-.617-.247-.617-.617v-2.16c0-.31.308-.618.617-.618zm0 25.988h2.16c.37 0 .618.247.618.617v2.16c0 .37-.247.618-.618.618h-2.16c-.37 0-.617-.247-.617-.617v-2.16c0-.371.308-.618.617-.618zm14.63-25.988h2.16c.37 0 .618.247.618.617v2.161c0 .37-.247.617-.618.617h-2.16c-.37 0-.617-.247-.617-.617v-2.16c0-.31.308-.618.617-.618zm21.975 0h2.16c.37 0 .618.247.618.617v2.161c0 .37-.247.617-.617.617h-2.161c-.37 0-.617-.247-.617-.617v-2.16c0-.31.308-.618.617-.618zm10.123 2.778c0 .37-.246.617-.617.617h-2.16c-.37 0-.618-.247-.618-.617v-2.16c0-.37.247-.618.618-.618h2.16m5.124 0h2.16c.37 0 .618.247.618.617v2.161c0 .37-.247.617-.618.617h-2.16c-.37 0-.617-.247-.617-.617v-2.16c0-.31.308-.618.617-.618z" fill="#000"/><path d="M65.308 19.938h2.16c.37 0 .617.247.617.617v2.161c0 .37-.246.617-.617.617h-2.16c-.37 0-.618-.247-.618-.617v-2.16c0-.31.247-.618.618-.618zM14.073 6.975h2.16c.371 0 .618.247.618.617v2.16c0 .371-.247.618-.617.618h-2.16c-.371 0-.618-.247-.618-.617v-2.16c0-.31.247-.618.617-.618zm14.63 0h2.16c.371 0 .618.247.618.617v2.16c0 .371-.247.618-.617.618h-2.16c-.371 0-.618-.247-.618-.617v-2.16c0-.31.247-.618.617-.618zm7.284 0h2.16c.37 0 .618.247.618.617v2.16c0 .371-.247.618-.618.618h-2.16c-.37 0-.617-.247-.617-.617v-2.16c0-.31.308-.618.617-.618zm14.691 0h2.16c.371 0 .618.247.618.617v2.16c0 .371-.247.618-.617.618h-2.16c-.371 0-.618-.247-.618-.617v-2.16c0-.31.247-.618.617-.618zm14.63 0h2.16c.37 0 .617.247.617.617v2.16c0 .371-.246.618-.617.618h-2.16c-.37 0-.618-.247-.618-.617v-2.16c0-.31.247-.618.618-.618zm14.63 0h2.16c.37 0 .617.247.617.617v2.16c0 .371-.246.618-.617.618h-2.16c-.37 0-.618-.247-.618-.617v-2.16c0-.31.247-.618.618-.618zM14.073 32.901h2.16c.371 0 .618.247.618.617v2.16c0 .371-.247.618-.617.618h-2.16c-.371 0-.618-.247-.618-.617v-2.16c0-.31.247-.618.617-.618zm0 13.025h2.16c.371 0 .618.247.618.617v2.16c0 .37-.247.618-.617.618h-2.16c-.371 0-.618-.247-.618-.617v-2.16c0-.371.247-.618.617-.618zm14.63-13.025h2.16c.371 0 .618.247.618.617v2.16c0 .371-.247.618-.617.618h-2.16c-.371 0-.618-.247-.618-.617v-2.16c0-.31.247-.618.617-.618zm14.629 0h2.16c.371 0 .618.247.618.617v2.16c0 .371-.247.618-.617.618h-2.16c-.371 0-.618-.247-.618-.617v-2.16c0-.31.247-.618.617-.618zm21.976 0h2.16c.37 0 .617.247.617.617v2.16c0 .371-.246.618-.617.618h-2.16c-.37 0-.618-.247-.618-.617v-2.16c0-.31.247-.618.618-.618zm7.284 0h2.16c.37 0 .618.247.618.617v2.16c0 .371-.247.618-.618.618h-2.16c-.37 0-.617-.247-.617-.617v-2.16c0-.31.308-.618.617-.618zM28.703 45.926h2.16c.371 0 .618.247.618.617v2.16c0 .37-.247.618-.617.618h-2.16c-.371 0-.618-.247-.618-.617v-2.16c0-.371.247-.618.617-.618zm21.975 0h2.16c.371 0 .618.247.618.617v2.16c0 .37-.247.618-.617.618h-2.16c-.371 0-.618-.247-.618-.617v-2.16c0-.371.247-.618.617-.618zm14.63 0h2.16c.37 0 .617.247.617.617v2.16c0 .37-.246.618-.617.618h-2.16c-.37 0-.618-.247-.618-.617v-2.16c0-.371.247-.618.618-.618z" fill="#000"/></svg>