<svg width="77" height="40" fill="none" xmlns="http://www.w3.org/2000/svg"><path d="M74.276 9.211h-5.07V4.603A3.668 3.668 0 0065.544.94H9.11a3.668 3.668 0 00-3.662 3.662V9.21H1.786a.85.85 0 00-.845.845v28.068a.845.845 0 00.845.845h72.49a.845.845 0 00.845-.845V10.056a.845.845 0 00-.845-.845z" fill="#F6F0E1"/><path d="M74.277 10.056H1.787v28.068h72.49V10.056z" stroke="#000" stroke-width="2.887" stroke-linecap="round" stroke-linejoin="round"/><path d="M74.277 10.062H46.58v27.696h27.696V10.062z" fill="#000" stroke="#000" stroke-width="2.887" stroke-linecap="round" stroke-linejoin="round"/><path d="M8.547 1.786h32.209a2.817 2.817 0 012.817 2.817v5.453H5.73V4.603a2.817 2.817 0 012.817-2.817v0z" stroke="#000" stroke-width="2.887" stroke-linecap="round" stroke-linejoin="round"/><path d="M41.882 10.056H55.59V4.603a2.817 2.817 0 00-2.817-2.817H35.217" stroke="#000" stroke-width="2.887" stroke-linecap="round" stroke-linejoin="round"/><path d="M47.375 4.603v5.453h-3.803V4.603a2.817 2.817 0 00-2.817-2.817h3.803a2.817 2.817 0 012.817 2.817zm12.018 0v5.453H55.59V4.603a2.817 2.817 0 00-2.817-2.817h3.803a2.817 2.817 0 012.817 2.817zm12.207 0v5.453h-3.802V4.603a2.817 2.817 0 00-2.817-2.817h3.803A2.817 2.817 0 0171.6 4.603z" fill="#000" stroke="#000" stroke-width="2.887" stroke-linecap="round" stroke-linejoin="round"/><path d="M40.756 1.792H28.694m15.442 8.27h-8.214m21.358-.006h10.518V4.603a2.817 2.817 0 00-2.817-2.817H50.705M29.341 18.879H14.332" stroke="#000" stroke-width="2.887" stroke-linecap="round" stroke-linejoin="round"/></svg>