<svg width="289" height="289" fill="none" xmlns="http://www.w3.org/2000/svg"><rect width="289" height="289" rx="10" fill="#333"/><path fill="#EF4731" d="M40 225.433h207.999v36.043H40zm0-18.021h207.999v4.505H40zm0 9.009h207.999v4.505H40zm0-18.02h207.999v4.505H40zm0-9.011h207.999v4.505H40zm0-9.011h207.999v4.505H40zm0-9.01h207.999v3.604H40zm0-9.011h207.999v3.604H40zm0-9.011h207.999v3.604H40zm0-9.011h207.999v2.703H40zm0-9.011h207.999v2.703H40zm0-9.01h207.999v2.703H40zm0-9.011h207.999v2.703H40zm0-9.011h207.999v1.802H40zm0-9.011h207.999v1.802H40zm0-9.01h207.999v1.802H40zm0-9.011h207.999v1.802H40zm.001-9.011H248v1.802H40.001z"/><path fill="url(#paint0_linear)" d="M40 69.67h208v190.946H40z"/><path d="M59.164 27.747c0-3.025-.642-4.764-2.268-6.201-1.437-1.286-3.404-1.967-5.71-1.967-2.534 0-4.727.832-6.088 2.345-1.21 1.323-1.702 3.176-1.702 6.428v8.054c0 3.933.492 5.748 1.89 7.147 1.362 1.361 3.517 2.118 6.051 2.118 2.42 0 4.349-.68 5.748-2.004 1.474-1.4 2.08-3.215 2.08-6.126v-9.794zm-10.89.605c0-1.588.151-2.344.53-2.987.453-.794 1.399-1.248 2.533-1.248.945 0 1.777.34 2.307.945.567.643.756 1.361.756 3.063v8.773c0 1.626-.151 2.382-.53 3.025-.491.794-1.474 1.286-2.533 1.286-1.021 0-2.042-.454-2.534-1.21-.453-.605-.529-1.06-.529-3.063v-8.584zm21.365-1.966v18.793h4.878V19.428l-9.454 4.916v4.5l4.576-2.458zm27.34 1.361c0-3.025-.644-4.764-2.27-6.201-1.437-1.286-3.403-1.967-5.71-1.967-2.533 0-4.726.832-6.087 2.345-1.21 1.323-1.702 3.176-1.702 6.428v8.054c0 3.933.492 5.748 1.89 7.147 1.362 1.361 3.517 2.118 6.05 2.118 2.42 0 4.35-.68 5.748-2.004 1.475-1.4 2.08-3.215 2.08-6.126v-9.794zm-10.891.605c0-1.588.151-2.344.53-2.987.453-.794 1.398-1.248 2.533-1.248.945 0 1.777.34 2.306.945.568.643.757 1.361.757 3.063v8.773c0 1.626-.151 2.382-.53 3.025-.491.794-1.474 1.286-2.533 1.286-1.021 0-2.042-.454-2.534-1.21-.454-.605-.53-1.06-.53-3.063v-8.584zm21.365-1.966v18.793h4.878V19.428l-9.454 4.916v4.5l4.576-2.458zM49.654 62.563c-.603.691-1.294 1-2.19 1-1.765 0-3.03-1.368-3.03-3.25s1.206-3.206 2.926-3.206c.824 0 1.5.294 2.294 1.015l1.309-1.324c-1.162-1.132-2.191-1.558-3.706-1.558-2.838 0-4.867 2.132-4.867 5.117 0 1.353.485 2.676 1.323 3.603.868.97 2.059 1.47 3.515 1.47s2.514-.426 3.647-1.485l-1.22-1.382zm5.56-4.368c-2.206 0-3.72 1.486-3.72 3.647 0 2.118 1.543 3.633 3.69 3.633 2.088 0 3.72-1.574 3.72-3.574 0-2.147-1.543-3.706-3.69-3.706zm0 1.677c1.117 0 1.808.764 1.808 2 0 1.132-.75 1.94-1.823 1.94-1.088 0-1.824-.793-1.824-1.97 0-1.19.736-1.97 1.839-1.97zm10.299-.691c-.662-.691-1.324-.986-2.25-.986-.838 0-1.662.339-2.309.941-.706.662-1.088 1.618-1.088 2.765 0 2.132 1.353 3.574 3.367 3.574 1.044 0 1.691-.324 2.28-1.133v.897h1.867v-9.808h-1.867v3.75zm-1.81.588c1.045 0 1.81.897 1.81 2.132 0 1.177-.794 2.074-1.824 2.074-1.059 0-1.838-.883-1.838-2.06 0-1.25.78-2.146 1.853-2.146zm12.345 2.514l.015-.367c0-2.191-1.515-3.72-3.691-3.72-2.103 0-3.589 1.5-3.589 3.632 0 2.117 1.544 3.647 3.706 3.647 1.441 0 2.632-.75 3.309-2.074l-1.72-.47c-.295.544-.883.882-1.574.882-.927 0-1.618-.588-1.78-1.53h5.324zm-5.323-1.073c.176-.927.779-1.441 1.676-1.441.926 0 1.574.544 1.735 1.441h-3.411zm11.183-5.78v9.81h3.617c1.074 0 1.676-.133 2.191-.471.633-.427 1.015-1.236 1.015-2.147 0-.75-.25-1.353-.706-1.765-.309-.28-.574-.397-1.162-.53.53-.176.75-.308 1.03-.588.411-.44.617-1 .617-1.676 0-.868-.338-1.618-.94-2.073-.516-.383-1.295-.56-2.5-.56h-3.162zm2.014 1.53h.706c.574 0 .985.059 1.265.191.353.177.588.603.588 1.103 0 .912-.559 1.338-1.75 1.338h-.809V56.96zm0 4.132h.868c.735 0 1.044.06 1.353.236.367.22.558.588.558 1.117 0 .47-.161.824-.485 1.044-.294.206-.617.265-1.309.265h-.985v-2.662zm11.518-1.794c-.661-.78-1.294-1.103-2.22-1.103-1.985 0-3.427 1.574-3.427 3.72 0 2.074 1.368 3.56 3.28 3.56 1 0 1.735-.368 2.367-1.177v.941h1.868v-6.808H95.44v.867zm-1.838.47c1.103 0 1.868.854 1.868 2.06 0 1.176-.838 2.147-1.882 2.147-1.015 0-1.794-.897-1.794-2.089 0-1.25.75-2.117 1.808-2.117zm10.298.633c-.044-1.382-.985-2.206-2.544-2.206-1.588 0-2.632.868-2.632 2.162 0 1.074.662 1.735 2.132 2.176 1 .31 1.265.5 1.265.912 0 .383-.309.647-.75.647-.544 0-.809-.264-.897-.853H98.68c.074 1.412 1.059 2.236 2.676 2.236 1.589 0 2.647-.883 2.647-2.206 0-1.103-.602-1.706-2.132-2.177-.941-.294-.956-.294-1.162-.456-.117-.088-.191-.264-.191-.44 0-.368.294-.618.75-.618.5 0 .868.294.868.705v.118h1.764zm8.308 1.882l.015-.367c0-2.191-1.515-3.72-3.691-3.72-2.103 0-3.588 1.5-3.588 3.632 0 2.117 1.544 3.647 3.706 3.647 1.441 0 2.632-.75 3.308-2.074l-1.72-.47c-.294.544-.883.882-1.574.882-.926 0-1.617-.588-1.779-1.53h5.323zm-5.323-1.073c.176-.927.779-1.441 1.676-1.441.927 0 1.574.544 1.736 1.441h-3.412z" fill="#fff"/><defs><linearGradient id="paint0_linear" x1="144" y1="79.672" x2="144" y2="260.616" gradientUnits="userSpaceOnUse"><stop stop-color="#333"/><stop offset="1" stop-color="#333" stop-opacity="0"/></linearGradient></defs></svg>