<svg width="387" height="340" fill="none" xmlns="http://www.w3.org/2000/svg"><path d="M376.465 1.5H8.093A7.429 7.429 0 00.674 8.919v323.394a7.424 7.424 0 007.419 7.419h368.372a7.43 7.43 0 007.419-7.419V8.919a7.433 7.433 0 00-7.419-7.419zm-67.683 276.709H53.628V49.465h255.154V278.21z" fill="#F6F0E1"/><path d="M352.761 2.78H9.971a5.116 5.116 0 00-5.117 5.116v323.395a5.116 5.116 0 005.116 5.116h342.791a5.115 5.115 0 005.116-5.116V7.896a5.116 5.116 0 00-5.116-5.116z" stroke="#000" stroke-width="5.116" stroke-linecap="round" stroke-linejoin="round"/><path d="M383.458 7.896V331.29a5.117 5.117 0 01-5.116 5.117h-25.581a5.116 5.116 0 005.116-5.117V7.896a5.118 5.118 0 00-5.116-5.117h25.581a5.118 5.118 0 015.116 5.117z" fill="#000" stroke="#000" stroke-width="5.116" stroke-linecap="round" stroke-linejoin="round"/><path d="M306.223 50.535H56.17a2.558 2.558 0 00-2.558 2.558v222.543a2.559 2.559 0 002.558 2.558h250.053a2.56 2.56 0 002.559-2.558V53.093a2.559 2.559 0 00-2.559-2.558z" stroke="#000" stroke-width="5.116" stroke-linecap="round" stroke-linejoin="round"/><path d="M323.296 35.304h-284.2a2.558 2.558 0 00-2.557 2.558v253.005a2.558 2.558 0 002.558 2.558h284.199a2.558 2.558 0 002.558-2.558V37.862a2.558 2.558 0 00-2.558-2.558z" stroke="#000" stroke-width="5.116" stroke-linecap="round" stroke-linejoin="round"/><path d="M325.854 37.862l-17.073 15.226-2.558-2.558H58.743a5.116 5.116 0 00-5.116 5.116v220l-17.088 15.216v-253l2.558-2.558h284.199l2.558 2.558z" fill="#000" stroke="#000" stroke-width="5.116" stroke-linecap="round" stroke-linejoin="round"/><path d="M308.388 277.861l15.845 14.121M53.612 278.193l-14.515 12.668" stroke="#000" stroke-width="5.116" stroke-linecap="round" stroke-linejoin="round"/><path d="M336.22 322.398a7.393 7.393 0 100-14.786 7.393 7.393 0 000 14.786z" fill="#000"/></svg>