<svg width="51" height="42" fill="none" xmlns="http://www.w3.org/2000/svg"><path d="M27.142 7.918a1.5 1.5 0 001.087.467h19.562l1.316 1.754V40.5H2.877V7.358l4.1-5.858h14.067l6.098 6.418z" fill="#000" stroke="#000" stroke-width="3" stroke-linecap="round" stroke-linejoin="round"/><path d="M25.765 7.918a1.5 1.5 0 001.087.467h19.562l1.316 1.754v28.984H1.5V7.461L6.865 1.5h12.803l6.097 6.418z" fill="#BAE8DB" stroke="#000" stroke-width="3" stroke-linecap="round" stroke-linejoin="round"/><circle cx="25" cy="24" r="3.636" stroke="#000" stroke-width="3"/><path d="M25 14v7.273m0 5.454V34M15 24h7.273m5.454 0H35m-17.273 6.87l5.142-5.143m3.857-3.857l5.142-5.143m.002 14.143l-5.143-5.143M22.87 21.87l-5.143-5.143" stroke="#000" stroke-width="3"/></svg>