<svg width="15" height="14" fill="none" xmlns="http://www.w3.org/2000/svg"><path fill-rule="evenodd" clip-rule="evenodd" d="M4.151 2.435C4.408 1.413 3.692.54 2.59.54c-.728 0-1.306.35-1.533.927-.364.922.185 1.879 1.169 2.033.924.155 1.73-.29 1.926-1.064zm4.324 3.449c.027-.03.046-.05.061-.064.015-.015.026-.025.034-.037.758-1.106 1.843-1.427 3.107-1.237 1.461.226 2.398 1.243 2.636 2.8.054.37.084.744.084 1.112l-.001 1.164a406.36 406.36 0 00.006 3.492c0 .172-.041.226-.22.226a83.73 83.73 0 00-2.445 0c-.179 0-.227-.048-.22-.226.005-1.45.005-2.896 0-4.346 0-.327-.024-.654-.114-.975-.298-1.023-1.461-1.38-2.296-.702-.447.369-.626.85-.62 1.42.004.912.003 1.821.001 2.73v.001l-.001 1.366-.002.153c-.002.128-.005.255.008.383.012.154-.054.184-.19.184-.83-.006-1.665-.006-2.494 0-.149 0-.202-.03-.202-.196.012-1.231.018-2.462.018-3.693 0-1.516 0-3.032-.012-4.542 0-.166.035-.214.202-.214.83.012 1.664.006 2.493 0 .15 0 .19.042.185.19-.02.272-.02.535-.018.827v.184zm-4.466 3.14c0 1.367 0 2.729.006 4.096 0 .173-.036.232-.22.226-.824-.012-1.647-.006-2.47 0-.155 0-.202-.036-.202-.196 0-2.753 0-5.506-.006-8.259 0-.142.035-.19.185-.19.84.006 1.675.006 2.516 0 .167 0 .19.06.19.208v4.115z" fill="#fff"/></svg>