<svg width="270" height="170" fill="none" xmlns="http://www.w3.org/2000/svg"><rect width="270" height="170" rx="14" fill="#0E0E0E"/><path d="M245 16l4.5 4.5M254 25l-4.5-4.5m0 0L254 16l-9 9" stroke="#F6F0E1" stroke-width="2.567"/><circle cx="19.293" cy="17.293" r="3.293" fill="#F6F0E1"/><circle cx="31" cy="17.293" r="3.293" fill="#F6F0E1"/><circle cx="42.708" cy="17.293" r="3.293" fill="#F6F0E1"/><circle cx="61.5" cy="77.5" r="22.5" fill="#484848"/><mask id="a" maskUnits="userSpaceOnUse" x="39" y="55" width="45" height="45"><circle cx="61.5" cy="77.5" r="22.5" fill="#484848"/></mask><g mask="url(#a)" fill="#F6F0E1"><path fill-rule="evenodd" clip-rule="evenodd" d="M45.428 93.724c3.753-5.478 9.555-8.992 16.067-8.992 6.512 0 12.314 3.514 16.068 8.992A23.62 23.62 0 0161.495 100a23.62 23.62 0 01-16.067-6.276z"/><ellipse cx="61.495" cy="73.482" rx="8.438" ry="8.839"/></g><path fill="#F6F0E1" d="M104 63h69v12h-69z"/><path fill="#484848" d="M104 81h69v4h-69zm0 37h69v4h-69z"/><path fill="#F6F0E1" d="M49 118h25v4H49zm-10-10h45v4H39z"/><path fill="#FC6839" d="M104 100h69v12h-69z"/><path d="M197 73.446l7 7.054L215.5 66M197 109.446l7 7.054 11.5-14.5" stroke="#F6F0E1" stroke-width="5" stroke-linecap="round" stroke-linejoin="round"/></svg>