<svg width="165" height="20" fill="none" xmlns="http://www.w3.org/2000/svg"><path fill-rule="evenodd" clip-rule="evenodd" d="M44.863 17.355c0 .458-.113.838-.378 1.145-.268.283-.573.435-.939.435-.53 0-.959-.302-1.29-.881l-2.449-4.166H28.151l-2.482 4.166c-.258.448-.543.693-.836.693a1.3 1.3 0 01-.607-.163c-.519-.275-.776-.632-.776-1.083 0-.069.029-.169.082-.307l8.744-15.556c.333-.607.89-.917 1.71-.98.639-.033 1.125.16 1.426.65.017.033.048.101.086.185l.066.145 9.255 15.296c.044.16.044.26.044.42zM33.986 4.014l-4.238 7.202h8.417l-4.18-7.202zm-16.743 14.57H8.549c-1.497 0-2.652-.082-3.394-.23-1.35-.225-2.408-.725-3.1-1.462C1.35 16.129 1 15.163 1 13.889V1.982c0-.729.333-1.109.997-1.109.656 0 1.067.008 1.194.047.382.153.583.496.583 1.063v11.905c0 .94.644 1.537 1.924 1.867.527.08 1.478.17 2.824.17h8.72c.407 0 .688.122.813.427.108.21.154.546.154 1.08 0 .76-.3 1.15-.966 1.15zm50.982.102c.05.008.1.016.148.016 1.035 0 1.544-.7 1.544-2.039V1.985c0-.73-.338-1.11-1.01-1.11-.67 0-1.059.008-1.192.047-.386.153-.59.498-.59 1.063v12.318L54.387 1.653c-.619-.62-1.24-.915-1.855-.915-.244 0-.499.06-.703.22-.342.215-.541.421-.611.696-.06.156-.1.5-.1.998v14.781c0 .76.323 1.152.98 1.152.668 0 1.093-.029 1.204-.085.38-.146.583-.498.583-1.067V5.007L66.8 17.814c.507.529.94.796 1.262.855.056 0 .11.009.164.017zM96.277 8.473c-.431 0-.735 0-.952.035h-7.656c-.658 0-1 .438-1 1.305 0 .923.342 1.342 1 1.342l.071-.004a7.84 7.84 0 01.622-.023c.282-.047 4.499-.047 6.1-.047v3.123c0 .529-.428.99-1.303 1.318-.647.276-1.266.404-1.85.404h-6.253c-2.468 0-3.718-.614-3.718-1.816V5.247c0-1.214 1.483-1.793 4.459-1.793.305 0 9.37 0 9.785.025.298 0 .502.024.603.036.034.004.057.007.068.007.667 0 1.01-.47 1.01-1.347 0-.867-.343-1.3-1.01-1.3H85.056c-1.553 0-2.93.298-4.096.842-1.59.771-2.406 1.979-2.406 3.53v8.863c0 1.688.788 2.871 2.323 3.647 1.124.552 2.494.827 4.15.827h6.282c1.533 0 2.827-.302 3.866-.927 1.383-.765 2.07-1.968 2.07-3.591v-4.44c0-.784-.326-1.153-.968-1.153zM123.513 18.5c.275-.307.399-.687.399-1.145 0-.162 0-.26-.042-.42l-9.265-15.297c-.055-.1-.096-.194-.125-.26-.014-.03-.024-.054-.033-.07-.312-.49-.79-.683-1.417-.65-.832.063-1.369.373-1.715.98l-8.75 15.556a.937.937 0 00-.08.307c0 .45.259.808.769 1.083.24.117.449.163.606.163.317 0 .606-.245.863-.693l2.45-4.166h11.658l2.461 4.166c.333.58.759.881 1.291.881.355 0 .664-.152.93-.435zm-14.723-7.284l4.239-7.202 4.182 7.202h-8.421zm32.736-7.694h-6.133v13.91c0 .76-.321 1.152-.956 1.152-.687 0-1.109-.03-1.222-.086-.382-.145-.563-.497-.563-1.066V3.522h-6.091c-.68 0-1.002-.41-1.002-1.184 0-.482.048-.846.153-1.041.157-.284.423-.423.849-.423h14.965c.405 0 .684.14.8.423.115.195.159.559.159 1.041 0 .775-.302 1.184-.959 1.184zm11.807 15.062h9.885c.65 0 .973-.53.973-1.531 0-.774-.323-1.127-.973-1.127h-9.76c-2.373 0-3.539-.614-3.539-1.86v-2.938h13.3c.302 0 .558-.154.78-.427.172-.27.24-.618.24-.966 0-.822-.317-1.262-1.02-1.262h-13.327V5.395c0-1.308 1.501-1.941 4.521-1.941.346 0 7.661 0 8.099.025.326 0 .529.024.633.036.036.004.06.007.073.007.635 0 .957-.41.957-1.184v-.355c0-.729-.322-1.109-.957-1.109h-9.668c-2.715 0-4.618.722-5.688 2.178a3.932 3.932 0 00-.746 2.343v8.73c0 1.613.746 2.767 2.23 3.574 1.124.583 2.465.885 3.987.885z" fill="#333"/><path d="M44.485 18.5l.363.343.008-.008.007-.009-.378-.326zm.378-1.145l-.499-.03v.03h.5zm-2.606.699l.434-.248-.003-.006-.431.254zm-2.45-4.166l.431-.253-.145-.247h-.286v.5zm-11.656 0v-.5h-.284l-.145.244.43.256zm-2.482 4.166l-.43-.256-.003.006.433.25zm-1.443.53l-.235.441.003.002.232-.443zm-.694-1.39l-.436-.245-.019.032-.013.035.468.178zm8.744-15.556l.436.245.002-.005-.438-.24zm1.71-.98L33.96.16h-.012l.038.5zm1.426.65l.443-.232-.008-.016-.01-.015-.425.262zm.086.185l-.455.207.001.002.454-.209zm0 0l.456-.206-.001-.003-.454.21zm.066.145l-.454.209.012.025.014.024.428-.258zm9.255 15.296l.482-.132-.018-.067-.036-.06-.428.26zm.044.42l.5.03v-.03h-.5zm-15.115-6.138l-.43-.253-.444.753h.874v-.5zm4.238-7.202l.432-.251-.43-.74-.433.737.43.254zm4.179 7.202v.5h.868l-.436-.75-.432.25zm-20.922 7.368l.296-.403-.132-.097h-.164v.5zm-12.088-.23l.099-.49-.009-.003h-.008l-.082.492zm-3.1-1.462l-.366.34.002.002.365-.342zM3.192.92l.187-.464-.02-.008-.02-.006L3.19.92zm2.507 14.835l-.125.485.025.006.026.004.074-.495zm12.357.597l-.463.19.008.02.01.02.445-.23zm-.812 2.23l-.297.403.132.098h.165v-.5zm51.13.12l.45-.22-.138-.28h-.312v.5zm-.148-.017l-.078.494.078-.494zm.149.017l-.45.22.138.28h.312v-.5zm1.543-2.04h.5-.5zM67.715.923l-.14-.48-.023.006-.022.009.185.464zm-.59 13.38l-.353.355.853.846v-1.2h-.5zM54.387 1.653l-.354.354.002.002.352-.355zM51.829.959l.267.424.022-.014.02-.017-.309-.393zm-.611.696l.467.178.01-.027.008-.028-.485-.123zM53.302 18.5l-.18-.466-.023.009-.021.01.224.447zm.583-13.493l.352-.355-.852-.845v1.2h.5zM66.8 17.814l.36-.346-.008-.009-.352.355zm1.262.855l-.09.492.045.008h.045v-.5zM95.325 8.508v.5h.04l.038-.006-.078-.494zm.952-.035l.17.47-.17-.97v.5zm-8.537 2.678l-.037-.499.037.499zm.622-.023v.5h.041l.04-.007-.08-.493zm6.1-.047h.5v-.5h-.5v.5zm-1.303 4.441l-.175-.468-.01.004-.011.005.196.46zM95.582 3.48l-.03.499h.03v-.5zm.603.036l.06-.497-.06.497zM80.96 1.717l-.212-.453-.006.003.218.45zm-.083 16.04l-.225.446.005.003.22-.45zm14.298-.1l-.242-.437-.008.004-.007.005.257.428zm2.07-8.032h.5-.5zm-.968-1.152l-.17-.47.17.97v-.5zm27.635 8.882h.5v-.021l-.002-.022-.498.043zm-.399 1.145l.365.342.008-.01-.373-.332zm.399-1.146h-.5v.022l.001.021.499-.043zm-.042-.42l.484-.125-.018-.07-.038-.064-.428.26zm-9.265-15.296l-.439.24.005.01.006.009.428-.26zm-.125-.26l-.458.202.458-.201zm-.033-.07l.447-.226-.012-.023-.013-.02-.422.268zm-1.417-.65l-.027-.499h-.011l.038.5zm-1.715.98l-.434-.248-.001.002.435.246zm-8.75 15.556l-.436-.245-.017.03-.012.032.465.183zm.689 1.39l-.237.44.009.004.008.004.22-.448zm1.469-.53l-.431-.254-.003.005.434.249zm2.45-4.166v-.5h-.286l-.145.247.431.253zm11.658 0l.43-.254-.145-.246h-.285v.5zm2.461 4.166l.434-.25-.003-.005-.431.255zm-8.263-14.04l.433-.251-.43-.74-.434.737.431.254zm-4.239 7.202l-.431-.253-.444.753h.875v-.5zm8.421 0v.5h.868l-.436-.75-.432.25zm18.182-7.694v-.5h-.5v.5h.5zm6.133 0l.027-.5h-.027v.5zm-8.311 14.976l.221-.449-.021-.01-.023-.009-.177.468zm-.563-14.976h.5v-.5h-.5v.5zm-6.94-2.225l-.438-.242-.004.007.442.235zm16.614 0l-.463.189.014.034.018.031.431-.254zm.159 1.041h-.5.5zm-.959 1.184l-.027.499h.027v-.5zm21.692 15.062v-.5.5zm.973-1.531h-.5.5zm-14.272-5.925v-.5h-.5v.5h.5zm14.08-.427l.387.316.019-.022.016-.025-.422-.269zm-14.107-2.228h-.5v.5h.5v-.5zm12.62-4.994l-.029.499h.029v-.5zm.633.036l.058-.497-.058.497zm-15.283-.463l-.403-.297-.004.006.407.29zm1.484 14.647l-.239.44.009.004.23-.444zM44.863 18.826c.364-.42.5-.927.5-1.471h-1c0 .372-.09.624-.256.817l.756.654zm-1.317.61c.527 0 .958-.229 1.302-.593l-.726-.687c-.192.203-.372.28-.576.28v1zM41.822 18.3c.389.681.96 1.134 1.724 1.134v-1c-.295 0-.582-.15-.855-.63l-.869.496zm-2.446-4.16l2.45 4.166.862-.507-2.45-4.165-.862.507zm-11.225.247h11.656v-1H28.151v1zM26.1 18.31l2.482-4.165-.86-.512-2.481 4.166.859.512zm-1.266.938c.585 0 .998-.473 1.27-.944l-.867-.5c-.245.426-.401.444-.403.444v1zm-.839-.22c.29.151.57.22.84.22v-1a.805.805 0 01-.377-.107l-.463.887zM22.95 17.5c0 .694.419 1.194 1.042 1.524l.468-.883c-.414-.22-.51-.434-.51-.64h-1zm.114-.485c-.049.13-.114.311-.114.485h1a.104.104 0 01-.002.025l.005-.02c.008-.03.022-.072.046-.134l-.935-.356zM31.84 1.393l-8.744 15.556.871.49 8.745-15.556-.872-.49zM33.948.16c-.944.072-1.677.447-2.11 1.237l.877.48c.231-.422.614-.667 1.309-.72L33.948.16zm1.89.885C35.414.357 34.725.12 33.96.16l.052.999c.513-.027.795.12.974.411l.852-.524zm.116.242c-.035-.076-.073-.162-.1-.211l-.885.463.074.16.91-.412zm-.001-.003l-.909.418.909-.418zm.065.144l-.064-.141-.91.413.066.147.908-.419zm9.229 15.248L35.992 1.379l-.855.517 9.254 15.297.856-.517zm.116.678c0-.166.001-.322-.062-.552l-.964.265a.885.885 0 01.026.287h1zm0 .03l-.999-.06v.001l.998.06zM30.178 11.47l4.238-7.203-.862-.507-4.238 7.203.862.507zm7.986-.754h-8.417v1h8.417v-1zm-4.612-6.451l4.18 7.202.864-.502-4.179-7.202-.865.502zM8.55 19.084h8.694v-1H8.549v1zm-3.492-.24c.791.158 1.985.24 3.492.24v-1c-1.488 0-2.603-.082-3.295-.22l-.197.98zm-3.366-1.61c.789.84 1.962 1.377 3.383 1.613l.163-.987c-1.279-.212-2.223-.677-2.816-1.31l-.73.684zM.5 13.888c0 1.376.382 2.471 1.189 3.343l.734-.679c-.606-.654-.923-1.49-.923-2.663h-1zm0-11.905v11.905h1V1.984h-1zM1.997.374c-.428 0-.832.126-1.12.449-.28.312-.377.73-.377 1.16h1c0-.297.069-.435.122-.495.044-.049.138-.114.375-.114v-1zm1.34.069A1.276 1.276 0 003.09.399a4.904 4.904 0 00-.28-.016C2.6.376 2.325.374 1.997.374v1c.328 0 .587.002.778.009.096.003.17.007.222.012.062.006.068.01.048.004l.293-.956zm.937 1.54c0-.338-.06-.656-.211-.929a1.335 1.335 0 00-.685-.597l-.373.928a.337.337 0 01.184.155c.044.08.085.216.085.444h1zm0 11.906V1.984h-1v11.905h1zm1.55 1.383c-.599-.154-.987-.356-1.222-.582-.218-.209-.328-.46-.328-.801h-1c0 .6.212 1.116.636 1.523.407.391.981.652 1.663.829l.25-.969zm2.698.155c-1.325 0-2.25-.09-2.75-.165l-.148.989c.555.083 1.53.175 2.898.175v-1zm8.72 0h-8.72v1h8.72v-1zm1.275.736a1.111 1.111 0 00-.539-.585 1.633 1.633 0 00-.735-.151v1c.16 0 .245.024.287.045.028.014.045.03.062.07l.925-.379zm.192 1.27c0-.534-.04-.982-.21-1.31l-.889.46c.048.09.1.316.1.85h1zm-1.466 1.65c.434 0 .84-.13 1.12-.472.264-.322.346-.747.346-1.179h-1c0 .33-.067.48-.12.544-.035.044-.113.108-.346.108v1zm-.297-.097l.593-.805-.593.805zm51.427-.784l-.014-.001a1.424 1.424 0 01-.056-.009l-.156.988c.042.007.132.022.226.022v-1zm.45.28l-.899.44.899-.44zm.594-1.819c0 .62-.12 1.004-.284 1.222-.143.192-.366.318-.76.318v1c.642 0 1.191-.225 1.56-.718.35-.466.484-1.103.484-1.822h-1zm0-14.678v14.678h1V1.985h-1zm-.51-.61c.242 0 .34.066.386.117.055.06.124.197.124.493h1c0-.433-.1-.851-.382-1.164-.29-.321-.698-.445-1.127-.445v1zm-1.052.027c-.005.001.06-.01.272-.018.188-.006.445-.008.78-.008v-1c-.335 0-.607.001-.814.009a2.34 2.34 0 00-.519.057l.281.96zm-.23.583c0-.226.041-.361.086-.44a.349.349 0 01.188-.158l-.369-.93a1.346 1.346 0 00-.69.596c-.154.273-.215.593-.215.932h1zm0 12.318V1.985h-1v12.318h1zM54.035 2.01l12.737 12.649.705-.71L54.74 1.3l-.704.71zm-1.503-.771c.442 0 .942.208 1.5.769l.71-.706C54.061.619 53.32.238 52.531.238v1zm-.393.113a.63.63 0 01.393-.113v-1c-.32 0-.695.078-1.012.327l.618.786zm-.437.426c.023-.088.09-.204.394-.395l-.533-.847c-.38.239-.712.534-.83.996l.97.246zm-.084.875c0-.237.01-.43.025-.575a2.045 2.045 0 01.04-.24l.002-.004-.934-.357a2.05 2.05 0 00-.103.497c-.02.19-.03.418-.03.679h1zm0 14.781V2.652h-1v14.781h1zm.48.652c-.227 0-.313-.064-.355-.114-.055-.065-.125-.217-.125-.538h-1c0 .44.091.864.361 1.184.284.335.688.468 1.119.468v-1zm.98-.031c.046-.024.066-.02.005-.01a2.515 2.515 0 01-.208.02c-.188.014-.448.02-.777.02v1c.34 0 .626-.006.846-.022.11-.007.21-.017.296-.031a.998.998 0 00.287-.084l-.45-.893zm.307-.62c0 .228-.041.368-.086.45a.318.318 0 01-.177.15l.36.933a1.31 1.31 0 00.691-.6c.152-.273.212-.594.212-.934h-1zm0-12.427v12.426h1V5.007h-1zM67.151 17.46L54.237 4.652l-.704.71L66.447 18.17l.704-.71zm1 .718c-.165-.03-.507-.204-.992-.71l-.721.693c.53.552 1.053.913 1.533 1.001l.18-.984zm.152.015c-.047-.007-.14-.023-.242-.023v1l.024.002.062.01.156-.989zm27.1-9.19c.168-.027.423-.029.874-.029v-1c-.412 0-.765-.001-1.03.04l.156.989zm-7.734.006h7.656v-1h-7.656v1zm-.5.805c0-.381.078-.58.15-.673.053-.07.142-.132.35-.132v-1c-.45 0-.862.157-1.143.522-.263.343-.356.797-.356 1.283h1zm.5.842c-.215 0-.298-.061-.349-.127-.071-.094-.15-.3-.15-.715h-1c0 .508.09.973.354 1.32.285.374.701.522 1.145.522v-1zm.034-.003a4.728 4.728 0 01-.044.003h-.002.012v1c.035 0 .085-.004.108-.005l-.074-.998zm.66-.024c-.327 0-.55.016-.66.024l.074.998c.1-.008.295-.022.585-.022v-1zm6.099-.047c-.8 0-2.256 0-3.547.006-.645.003-1.25.007-1.713.014-.231.003-.428.007-.578.012a3.25 3.25 0 00-.343.021l.163.987c-.006.001.05-.004.21-.009.142-.004.333-.008.562-.011.458-.007 1.06-.011 1.704-.014 1.288-.006 2.741-.006 3.542-.006v-1zm.5 3.623V11.08h-1v3.123h1zm-1.628 1.787c.93-.349 1.628-.932 1.628-1.787h-1c0 .203-.159.543-.978.85l.35.937zm-2.025.435c.658 0 1.344-.144 2.046-.444l-.392-.92c-.592.253-1.145.364-1.654.364v1zm-6.253 0h6.253v-1h-6.253v1zm-4.218-2.316c0 .392.103.756.322 1.074.215.314.523.554.892.734.723.354 1.744.508 3.004.508v-1c-1.208 0-2.046-.152-2.565-.406-.253-.124-.411-.263-.507-.402a.865.865 0 01-.146-.508h-1zm0-8.863v8.863h1V5.247h-1zm4.959-2.293c-1.505 0-2.698.144-3.531.477-.422.168-.78.396-1.036.706a1.707 1.707 0 00-.392 1.11h1c0-.192.055-.342.164-.474.116-.14.313-.285.635-.413.652-.26 1.689-.406 3.16-.406v-1zm9.815.026c-.435-.027-9.528-.026-9.815-.026v1a4071.865 4071.865 0 018.122.01 273.168 273.168 0 011.587.012 3.208 3.208 0 01.043.002h.003l.06-.998zm.632.038a5.322 5.322 0 00-.662-.04v1c.27 0 .45.022.544.033l.118-.993zm.009.004h.027c.002 0 .003 0 0 0a1.4 1.4 0 01-.014-.001l-.022-.003-.118.993c.013.002.078.01.127.01v-1zm.51-.847c0 .386-.077.598-.156.703-.06.08-.151.144-.354.144v1c.464 0 .877-.172 1.156-.546.26-.349.355-.81.355-1.3h-1zm-.51-.8c.217 0 .308.063.361.132.072.092.15.287.15.668h1c0-.486-.095-.942-.362-1.283-.284-.365-.699-.518-1.149-.518v1zm-11.197 0h11.197v-1H85.056v1zm-3.885.795c1.093-.51 2.396-.796 3.885-.796v-1c-1.617 0-3.067.31-4.308.89l.423.906zm-2.117 3.077c0-1.33.679-2.38 2.124-3.08l-.436-.9c-1.736.842-2.688 2.209-2.688 3.98h1zm0 8.863V5.247h-1v8.863h1zm2.049 3.2c-.707-.357-1.212-.792-1.542-1.305-.33-.511-.507-1.132-.507-1.895h-1c0 .925.217 1.74.666 2.436.447.695 1.103 1.239 1.931 1.657l.452-.892zm3.923.774c-1.602 0-2.89-.266-3.928-.776l-.441.898c1.21.595 2.66.878 4.37.878v-1zm6.283 0h-6.283v1h6.283v-1zm3.609-.855c-.942.565-2.14.855-3.61.855v1c1.597 0 2.987-.315 4.125-.998l-.516-.857zm1.828-3.163c0 .74-.156 1.357-.45 1.868-.294.51-.74.94-1.363 1.286l.484.875c.76-.421 1.35-.974 1.745-1.663.396-.687.584-1.483.584-2.366h-1zm0-4.44v4.44h1v-4.44h-1zm-.469-.653c.225 0 .306.061.344.107.053.061.125.21.125.546h1c0-.45-.092-.876-.363-1.195-.285-.334-.688-.458-1.106-.458v1zm-.17-.97l.34.94-.34-.94zm27.305 9.352c0 .361-.095.614-.271.811l.745.667c.372-.416.526-.923.526-1.478h-1zm.001.042h.001l.996-.085-.997.085zm-.027-.337a.946.946 0 01.026.294h1c0-.166.001-.319-.058-.545l-.968.25zm-9.209-15.163l9.265 15.296.856-.518-9.266-15.296-.855.518zm-.155-.317c.029.066.078.177.144.297l.877-.48c-.043-.078-.076-.154-.106-.22l-.915.403zm-.021-.047l.005.01.016.037.915-.403a1.928 1.928 0 00-.043-.095l-.893.45zm-.945-.375c.494-.026.777.116.97.418l.843-.538c-.432-.676-1.105-.92-1.866-.879l.053.999zm-1.306.727c.133-.234.293-.395.489-.507.2-.115.465-.194.828-.221l-.075-.997c-.468.035-.887.142-1.25.35-.367.21-.649.508-.861.88l.869.495zm-8.749 15.554l8.75-15.556-.871-.49-8.751 15.556.872.49zm-.016.062c0 .023-.003.025.004-.003.006-.025.019-.064.041-.121l-.93-.366a1.374 1.374 0 00-.115.49h1zm.506.642c-.407-.22-.506-.434-.506-.642h-1c0 .694.42 1.193 1.032 1.523l.474-.88zm.369.104a.93.93 0 01-.385-.112l-.441.897c.294.145.578.215.826.215v-1zm.429-.442c-.237.413-.396.442-.429.442v1c.601 0 1.019-.461 1.296-.945l-.867-.497zm2.453-4.17l-2.45 4.165.862.507 2.45-4.165-.862-.507zm12.089-.247h-11.658v1h11.658v-1zm2.892 4.411l-2.462-4.165-.861.509 2.462 4.165.861-.509zm.86.636c-.296 0-.582-.15-.857-.63l-.868.497c.39.68.958 1.133 1.725 1.133v-1zm.566-.278c-.189.202-.373.278-.566.278v1c.517 0 .952-.228 1.295-.593l-.729-.685zM112.598 3.76l-4.239 7.203.861.507 4.24-7.202-.862-.508zm5.045 7.205l-4.181-7.202-.865.502 4.182 7.202.864-.502zm-8.853.751h8.421v-1h-8.421v1zm26.603-7.694h6.133v-1h-6.133v1zm.5 13.41V3.522h-1v13.91h1zm-1.456 1.652c.425 0 .823-.136 1.101-.473.264-.318.355-.74.355-1.179h-1c0 .322-.07.475-.125.542-.041.05-.121.11-.331.11v1zm-1.444-.138c.101.05.212.07.284.082.087.014.188.024.299.032.222.016.512.024.861.024v-1c-.338 0-.602-.008-.791-.021a2.472 2.472 0 01-.21-.022c-.06-.01-.043-.013 0 .008l-.443.897zm-.841-1.514c0 .331.052.65.195.924.151.288.387.494.691.61l.354-.936a.27.27 0 01-.159-.138c-.042-.08-.081-.222-.081-.46h-1zm0-13.91v13.91h1V3.522h-1zm-5.591.5h6.091v-1h-6.091v1zm-1.502-1.684c0 .444.09.876.361 1.202.286.344.697.482 1.141.482v-1c-.237 0-.327-.067-.372-.121-.059-.072-.13-.232-.13-.563h-1zm.211-1.276c-.092.172-.14.378-.169.577a5.114 5.114 0 00-.042.699h1a4 4 0 01.032-.557.879.879 0 01.062-.249l-.883-.47zm1.291-.688c-.265 0-.521.043-.75.159-.237.119-.414.3-.537.522l.875.484a.251.251 0 01.111-.113.68.68 0 01.301-.052v-1zm14.965 0h-14.965v1h14.965v-1zm1.263.734c-.224-.548-.752-.734-1.263-.734v1c.149 0 .235.026.277.049a.111.111 0 01.06.063l.926-.378zm.196 1.23c0-.254-.011-.491-.041-.7a1.633 1.633 0 00-.188-.596l-.861.51a.731.731 0 01.059.23c.021.142.031.327.031.556h1zm-1.459 1.684c.439 0 .842-.142 1.118-.491.258-.326.341-.755.341-1.193h-1c0 .337-.068.5-.125.572-.039.05-.115.112-.334.112v1zm-.027-.001l.054-.999-.054.999zm21.719 14.063h-9.885v1h9.885v-1zm.473-1.031c0 .462-.077.733-.166.875-.066.104-.145.156-.307.156v1c.488 0 .895-.213 1.154-.624.235-.374.319-.868.319-1.407h-1zm-.473-.627c.236 0 .318.062.354.103.048.054.119.193.119.524h1c0-.444-.091-.868-.367-1.183-.288-.33-.692-.444-1.106-.444v1zm-9.76 0h9.76v-1h-9.76v1zm-4.039-2.36c0 .392.093.76.296 1.082.202.322.495.57.851.758.696.366 1.679.52 2.892.52v-1c-1.16 0-1.947-.153-2.427-.405a1.185 1.185 0 01-.47-.405 1.01 1.01 0 01-.142-.55h-1zm0-2.938v2.938h1v-2.938h-1zm13.8-.5h-13.3v1h13.3v-1zm.393-.243c-.162.198-.288.243-.393.243v1c.499 0 .884-.263 1.167-.61l-.774-.633zm.127-.65c0 .293-.059.536-.162.698l.844.537c.24-.379.318-.832.318-1.235h-1zm-.52-.762c.24 0 .332.07.381.132.067.086.139.27.139.63h1c0-.461-.086-.909-.353-1.248-.286-.363-.705-.514-1.167-.514v1zm-13.327 0h13.327v-1h-13.327v1zm-.5-3.578v3.078h1V5.395h-1zm5.021-2.441c-1.529 0-2.742.158-3.59.52-.429.184-.791.43-1.045.76-.26.337-.386.73-.386 1.16h1c0-.223.061-.399.177-.549.121-.157.324-.313.647-.451.658-.282 1.706-.44 3.197-.44v-1zm8.127.026c-.456-.027-7.798-.026-8.127-.026v1c.363 0 7.651 0 8.07.024l.057-.998zm.663.038a5.551 5.551 0 00-.691-.04v1c.299 0 .481.022.575.033l.116-.993zm.015.004a.375.375 0 01.023 0h-.001l-.014-.001-.023-.003-.116.993c.017.002.081.01.131.01v-1zm.457-.684c0 .33-.071.495-.13.57-.044.054-.124.114-.327.114v1c.433 0 .831-.145 1.107-.489.259-.323.35-.75.35-1.195h-1zm0-.355v.355h1v-.355h-1zm-.457-.609c.215 0 .297.06.337.107.052.06.12.201.12.502h1c0-.427-.093-.841-.361-1.153-.28-.326-.676-.456-1.096-.456v1zm-9.668 0h9.668v-1h-9.668v1zm-5.285 1.974c.934-1.271 2.644-1.974 5.285-1.974v-1c-2.789 0-4.886.742-6.091 2.381l.806.593zm-.649 2.047c0-.783.227-1.457.653-2.053l-.814-.581a4.43 4.43 0 00-.839 2.634h1zm0 8.73v-8.73h-1v8.73h1zm1.969 3.135c-.685-.373-1.171-.81-1.487-1.312-.315-.5-.482-1.097-.482-1.823h-1c0 .887.206 1.674.635 2.355.428.68 1.057 1.224 1.856 1.659l.478-.879zm3.748.824c-1.456 0-2.715-.29-3.757-.828l-.46.887c1.207.625 2.629.94 4.217.94v-1z" fill="#333"/></svg>