<svg width="80" height="41" fill="none" xmlns="http://www.w3.org/2000/svg"><g clip-path="url(#clip0)"><path d="M79.974 5.213a.438.438 0 000-.076v-.045l-.046-.081a.2.2 0 00-.04-.051l-.04-.046-.072-.06h-.035l-.086-.046-.294-.06H19.062a.664.664 0 00-.506.202L4.939 18.526a.65.65 0 00-.274.43v.026a.617.617 0 010 .107v20.47a.684.684 0 00.684.685h60.405l.127-.04.066-.036.055-.03.087-.072 13.733-13.733a.668.668 0 00.203-.507V5.376a.768.768 0 000-.112l-.05-.05z" fill="#000"/><path d="M75.917 1.15a.675.675 0 00-.025-.075v-.04l-.046-.087-.04-.05-.04-.046a.36.36 0 00-.077-.06L75.654.76l-.081-.04-.3-.067H15a.668.668 0 00-.481.203L.877 14.464a.69.69 0 00-.274.435v.026a.911.911 0 010 .101v20.481a.684.684 0 00.664.659H61.55a.438.438 0 00.117 0l.132-.04a.332.332 0 00.06-.031l.061-.035.081-.071L75.74 22.25a.677.677 0 00.197-.481V1.313a.829.829 0 000-.112l-.02-.05z" fill="#F6F0E1"/><path d="M61.52 35.482L75.257 21.75V1.313H15L1.266 15.046v20.436H61.52z" stroke="#000" stroke-width="2.599" stroke-linecap="round" stroke-linejoin="round"/><path d="M75.258 1.313L61.519 15.046H1.266m60.253 20.436V15.046M1.266 35.482h60.253M38.703 30.37h22.816m-60.253 0h20.84m16.597-5.117h22.816m-60.253 0h20.84m16.597-5.116h22.816m-60.253 0h20.84M1.266 15.02h60.253" stroke="#000" stroke-width="2.599" stroke-linecap="round" stroke-linejoin="round"/><path d="M22.112 25.254V15.046L35.845 1.313h16.596L38.702 15.046v20.436h-16.59V25.254z" stroke="#000" stroke-width="2.599" stroke-linecap="round" stroke-linejoin="round"/><path d="M75.258 21.748V1.312L61.519 15.046v20.436l13.739-13.734z" fill="#000"/><path d="M17.568 9.296c1.127 0 2.041-.499 2.041-1.114 0-.616-.914-1.115-2.041-1.115-1.128 0-2.042.5-2.042 1.115s.914 1.114 2.042 1.114zm41.23 0c1.128 0 2.042-.499 2.042-1.114 0-.616-.914-1.115-2.042-1.115-1.127 0-2.041.5-2.041 1.115s.914 1.114 2.041 1.114z" fill="#000" stroke="#000" stroke-width="1.72" stroke-linecap="round" stroke-linejoin="round"/></g><defs><clipPath id="clip0"><path fill="#fff" transform="translate(0 .046)" d="M0 0h80v40.182H0z"/></clipPath></defs></svg>