<svg width="86" height="49" fill="none" xmlns="http://www.w3.org/2000/svg"><g clip-path="url(#clip0)"><path d="M74.974 12.685h-8.316V6.268c0-2.165-1.218-4.097-3.176-5.05l-.136-.064a5.507 5.507 0 00-2.307-.506H6.267a.894.894 0 00-.39.084l-.259.11L5.36.727a1.04 1.04 0 00-.389-.078c-1.614 0-4.323.733-4.323 5.62v1.886a.97.97 0 00.972.972h8.316v33.44a5.627 5.627 0 005.62 5.62h54.77a5.627 5.627 0 005.62-5.62v-28.91a.98.98 0 00-.972-.972z" fill="#F6F0E1"/><path d="M4.972 1.62c-2.567 0-3.351 2.081-3.351 4.648v1.886h54.77V6.268a4.647 4.647 0 119.295 0v36.298a4.647 4.647 0 009.295 0V13.657h-9.288" stroke="#000" stroke-width="3.241" stroke-miterlimit="10" stroke-linecap="round" stroke-linejoin="round"/><path d="M62.99 2.055a4.645 4.645 0 00-2.69 4.213v1.886h-3.91c0-.006-1.043-6.974 6.599-6.1z" fill="#000" stroke="#000" stroke-width="3.241" stroke-miterlimit="10" stroke-linecap="round" stroke-linejoin="round"/><path d="M70.327 47.207h-54.77a4.647 4.647 0 01-4.648-4.648V8.148M61.038 1.62H6.268" stroke="#000" stroke-width="3.241" stroke-miterlimit="10" stroke-linecap="round" stroke-linejoin="round"/><path d="M35.229 22.628H18.162v17.066H35.23V22.628z" fill="#000" stroke="#000" stroke-width="1.296" stroke-miterlimit="10" stroke-linecap="round" stroke-linejoin="round"/><path d="M18.162 16.36h40.271M41.917 26.459h16.516M41.917 36.564h16.516" stroke="#000" stroke-width="3.241" stroke-miterlimit="10" stroke-linejoin="round"/><path d="M69.679 13.657v32.325s-4 .771-4-3.416V13.664h4v-.007z" fill="#000" stroke="#000" stroke-width=".648" stroke-miterlimit="10" stroke-linecap="round" stroke-linejoin="round"/></g><defs><clipPath id="clip0"><path fill="#fff" d="M0 0h86v48.827H0z"/></clipPath></defs></svg>