<svg width="672" height="312" fill="none" xmlns="http://www.w3.org/2000/svg"><path d="M511.478 5.025c0 2.32-1.878 4.2-4.195 4.2a4.197 4.197 0 01-4.194-4.2c0-2.32 1.878-4.2 4.194-4.2a4.198 4.198 0 014.195 4.2zm-50.331 0c0 2.32-1.878 4.2-4.194 4.2a4.197 4.197 0 01-4.194-4.2c0-2.32 1.877-4.2 4.194-4.2a4.197 4.197 0 014.194 4.2zm-50.331 0c0 2.32-1.877 4.2-4.194 4.2a4.197 4.197 0 01-4.194-4.2c0-2.32 1.878-4.2 4.194-4.2a4.197 4.197 0 014.194 4.2zm-50.33 0c0 2.32-1.878 4.2-4.194 4.2a4.198 4.198 0 01-4.195-4.2c0-2.32 1.878-4.2 4.195-4.2a4.197 4.197 0 014.194 4.2zm-50.331 0c0 2.32-1.878 4.2-4.194 4.2a4.197 4.197 0 01-4.194-4.2c0-2.32 1.878-4.2 4.194-4.2a4.197 4.197 0 014.194 4.2zm176.157 25.201c0 2.32-1.878 4.2-4.194 4.2a4.197 4.197 0 01-4.194-4.2c0-2.32 1.878-4.2 4.194-4.2a4.197 4.197 0 014.194 4.2zm-50.33 0c0 2.32-1.878 4.2-4.195 4.2a4.197 4.197 0 01-4.194-4.2c0-2.32 1.878-4.2 4.194-4.2a4.198 4.198 0 014.195 4.2zm-50.331 0c0 2.32-1.878 4.2-4.194 4.2a4.197 4.197 0 01-4.194-4.2c0-2.32 1.877-4.2 4.194-4.2a4.197 4.197 0 014.194 4.2zm-50.331 0c0 2.32-1.877 4.2-4.194 4.2a4.197 4.197 0 01-4.194-4.2c0-2.32 1.878-4.2 4.194-4.2a4.197 4.197 0 014.194 4.2zm-50.33 0c0 2.32-1.878 4.2-4.194 4.2a4.198 4.198 0 01-4.195-4.2c0-2.32 1.878-4.2 4.195-4.2a4.197 4.197 0 014.194 4.2zm226.488 25.202c0 2.32-1.878 4.2-4.195 4.2a4.197 4.197 0 01-4.194-4.2c0-2.32 1.878-4.2 4.194-4.2a4.198 4.198 0 014.195 4.2zm-50.331 0c0 2.32-1.878 4.2-4.194 4.2a4.197 4.197 0 01-4.194-4.2c0-2.32 1.877-4.2 4.194-4.2a4.197 4.197 0 014.194 4.2zm-50.331 0c0 2.32-1.877 4.2-4.194 4.2a4.197 4.197 0 01-4.194-4.2c0-2.32 1.878-4.2 4.194-4.2a4.197 4.197 0 014.194 4.2zm-50.33 0c0 2.32-1.878 4.2-4.194 4.2a4.198 4.198 0 01-4.195-4.2c0-2.32 1.878-4.2 4.195-4.2a4.197 4.197 0 014.194 4.2zm-50.331 0c0 2.32-1.878 4.2-4.194 4.2a4.197 4.197 0 01-4.194-4.2c0-2.32 1.878-4.2 4.194-4.2a4.197 4.197 0 014.194 4.2zM486.312 80.63c0 2.319-1.878 4.2-4.194 4.2a4.197 4.197 0 01-4.194-4.2 4.198 4.198 0 014.194-4.201 4.197 4.197 0 014.194 4.2zm-50.33 0c0 2.319-1.878 4.2-4.195 4.2a4.197 4.197 0 01-4.194-4.2 4.198 4.198 0 014.194-4.201 4.198 4.198 0 014.195 4.2zm-50.331 0c0 2.319-1.878 4.2-4.194 4.2a4.197 4.197 0 01-4.194-4.2 4.197 4.197 0 014.194-4.201 4.197 4.197 0 014.194 4.2zm-50.331 0c0 2.319-1.877 4.2-4.194 4.2a4.197 4.197 0 01-4.194-4.2 4.198 4.198 0 014.194-4.201 4.197 4.197 0 014.194 4.2zm-50.33 0c0 2.319-1.878 4.2-4.194 4.2a4.198 4.198 0 01-4.195-4.2 4.198 4.198 0 014.195-4.201 4.197 4.197 0 014.194 4.2zm226.488 25.201c0 2.319-1.878 4.2-4.195 4.2a4.198 4.198 0 01-4.194-4.2 4.198 4.198 0 014.194-4.201 4.198 4.198 0 014.195 4.201zm-50.331 0c0 2.319-1.878 4.2-4.194 4.2a4.197 4.197 0 01-4.194-4.2 4.197 4.197 0 014.194-4.201 4.198 4.198 0 014.194 4.201zm-50.331 0c0 2.319-1.877 4.2-4.194 4.2a4.198 4.198 0 01-4.194-4.2 4.198 4.198 0 014.194-4.201 4.197 4.197 0 014.194 4.201zm-50.33 0c0 2.319-1.878 4.2-4.194 4.2a4.198 4.198 0 01-4.195-4.2 4.198 4.198 0 014.195-4.201 4.198 4.198 0 014.194 4.201zm-50.331 0c0 2.319-1.878 4.2-4.194 4.2a4.198 4.198 0 01-4.194-4.2 4.198 4.198 0 014.194-4.201 4.198 4.198 0 014.194 4.201zm176.157 25.201c0 2.32-1.878 4.2-4.194 4.2a4.197 4.197 0 01-4.194-4.2c0-2.32 1.878-4.2 4.194-4.2a4.197 4.197 0 014.194 4.2zm-50.33 0c0 2.32-1.878 4.2-4.195 4.2a4.197 4.197 0 01-4.194-4.2c0-2.32 1.878-4.2 4.194-4.2a4.197 4.197 0 014.195 4.2zm-50.331 0c0 2.32-1.878 4.2-4.194 4.2a4.196 4.196 0 01-4.194-4.2c0-2.32 1.877-4.2 4.194-4.2a4.197 4.197 0 014.194 4.2zm-50.331 0c0 2.32-1.877 4.2-4.194 4.2a4.197 4.197 0 01-4.194-4.2c0-2.32 1.878-4.2 4.194-4.2a4.196 4.196 0 014.194 4.2zm-50.33 0c0 2.32-1.878 4.2-4.194 4.2a4.197 4.197 0 01-4.195-4.2c0-2.32 1.878-4.2 4.195-4.2a4.197 4.197 0 014.194 4.2zm226.488 25.202c0 2.319-1.878 4.2-4.195 4.2a4.198 4.198 0 01-4.194-4.2 4.198 4.198 0 014.194-4.201 4.198 4.198 0 014.195 4.201zm-50.331 0c0 2.319-1.878 4.2-4.194 4.2a4.197 4.197 0 01-4.194-4.2 4.197 4.197 0 014.194-4.201 4.198 4.198 0 014.194 4.201zm-50.331 0c0 2.319-1.877 4.2-4.194 4.2a4.198 4.198 0 01-4.194-4.2 4.198 4.198 0 014.194-4.201 4.197 4.197 0 014.194 4.201zm-50.33 0c0 2.319-1.878 4.2-4.194 4.2a4.198 4.198 0 01-4.195-4.2 4.198 4.198 0 014.195-4.201 4.198 4.198 0 014.194 4.201zm-50.331 0c0 2.319-1.878 4.2-4.194 4.2a4.198 4.198 0 01-4.194-4.2 4.198 4.198 0 014.194-4.201 4.198 4.198 0 014.194 4.201zm176.157 25.201c0 2.32-1.878 4.2-4.194 4.2a4.197 4.197 0 01-4.194-4.2c0-2.32 1.878-4.2 4.194-4.2a4.197 4.197 0 014.194 4.2zm-50.33 0c0 2.32-1.878 4.2-4.195 4.2a4.197 4.197 0 01-4.194-4.2c0-2.32 1.878-4.2 4.194-4.2a4.197 4.197 0 014.195 4.2zm-50.331 0c0 2.32-1.878 4.2-4.194 4.2a4.196 4.196 0 01-4.194-4.2c0-2.32 1.877-4.2 4.194-4.2a4.197 4.197 0 014.194 4.2zm-50.331 0c0 2.32-1.877 4.2-4.194 4.2a4.197 4.197 0 01-4.194-4.2c0-2.32 1.878-4.2 4.194-4.2a4.196 4.196 0 014.194 4.2zm-50.33 0c0 2.32-1.878 4.2-4.194 4.2a4.197 4.197 0 01-4.195-4.2c0-2.32 1.878-4.2 4.195-4.2a4.197 4.197 0 014.194 4.2zm226.488 25.201a4.198 4.198 0 01-4.195 4.201 4.198 4.198 0 01-4.194-4.201c0-2.319 1.878-4.2 4.194-4.2a4.198 4.198 0 014.195 4.2zm-50.331 0a4.198 4.198 0 01-4.194 4.201 4.197 4.197 0 01-4.194-4.201c0-2.319 1.877-4.2 4.194-4.2a4.198 4.198 0 014.194 4.2zm-50.331 0a4.197 4.197 0 01-4.194 4.201 4.198 4.198 0 01-4.194-4.201c0-2.319 1.878-4.2 4.194-4.2a4.197 4.197 0 014.194 4.2zm-50.33 0a4.198 4.198 0 01-4.194 4.201 4.198 4.198 0 01-4.195-4.201c0-2.319 1.878-4.2 4.195-4.2a4.198 4.198 0 014.194 4.2zm-50.331 0a4.198 4.198 0 01-4.194 4.201 4.198 4.198 0 01-4.194-4.201c0-2.319 1.878-4.2 4.194-4.2a4.198 4.198 0 014.194 4.2zm176.157 25.202c0 2.32-1.878 4.2-4.194 4.2a4.197 4.197 0 01-4.194-4.2c0-2.32 1.878-4.2 4.194-4.2a4.197 4.197 0 014.194 4.2zm-50.33 0c0 2.32-1.878 4.2-4.195 4.2a4.197 4.197 0 01-4.194-4.2c0-2.32 1.878-4.2 4.194-4.2a4.197 4.197 0 014.195 4.2zm-50.331 0c0 2.32-1.878 4.2-4.194 4.2a4.196 4.196 0 01-4.194-4.2c0-2.32 1.877-4.2 4.194-4.2a4.197 4.197 0 014.194 4.2zm-50.331 0c0 2.32-1.877 4.2-4.194 4.2a4.197 4.197 0 01-4.194-4.2c0-2.32 1.878-4.2 4.194-4.2a4.196 4.196 0 014.194 4.2zm-50.33 0c0 2.32-1.878 4.2-4.194 4.2a4.197 4.197 0 01-4.195-4.2c0-2.32 1.878-4.2 4.195-4.2a4.197 4.197 0 014.194 4.2zm226.488 25.201a4.198 4.198 0 01-4.195 4.201 4.198 4.198 0 01-4.194-4.201c0-2.32 1.878-4.2 4.194-4.2a4.197 4.197 0 014.195 4.2zm-50.331 0a4.198 4.198 0 01-4.194 4.201 4.197 4.197 0 01-4.194-4.201c0-2.32 1.877-4.2 4.194-4.2a4.197 4.197 0 014.194 4.2zm-50.331 0a4.197 4.197 0 01-4.194 4.201 4.198 4.198 0 01-4.194-4.201c0-2.32 1.878-4.2 4.194-4.2a4.196 4.196 0 014.194 4.2zm-50.33 0a4.198 4.198 0 01-4.194 4.201 4.198 4.198 0 01-4.195-4.201c0-2.32 1.878-4.2 4.195-4.2a4.197 4.197 0 014.194 4.2zm-50.331 0a4.198 4.198 0 01-4.194 4.201 4.198 4.198 0 01-4.194-4.201c0-2.32 1.878-4.2 4.194-4.2a4.197 4.197 0 014.194 4.2zm176.157 25.202c0 2.319-1.878 4.2-4.194 4.2a4.198 4.198 0 01-4.194-4.2 4.198 4.198 0 014.194-4.201 4.198 4.198 0 014.194 4.201zm-50.33 0c0 2.319-1.878 4.2-4.195 4.2a4.198 4.198 0 01-4.194-4.2 4.198 4.198 0 014.194-4.201 4.198 4.198 0 014.195 4.201zm-50.331 0c0 2.319-1.878 4.2-4.194 4.2a4.197 4.197 0 01-4.194-4.2 4.197 4.197 0 014.194-4.201 4.198 4.198 0 014.194 4.201zm-50.331 0c0 2.319-1.877 4.2-4.194 4.2a4.198 4.198 0 01-4.194-4.2 4.198 4.198 0 014.194-4.201 4.197 4.197 0 014.194 4.201zm-50.33 0c0 2.319-1.878 4.2-4.194 4.2a4.198 4.198 0 01-4.195-4.2 4.198 4.198 0 014.195-4.201 4.198 4.198 0 014.194 4.201zm226.488 25.201c0 2.32-1.878 4.2-4.195 4.2a4.197 4.197 0 01-4.194-4.2c0-2.32 1.878-4.2 4.194-4.2a4.197 4.197 0 014.195 4.2zm-50.331 0c0 2.32-1.878 4.2-4.194 4.2a4.196 4.196 0 01-4.194-4.2c0-2.32 1.877-4.2 4.194-4.2a4.197 4.197 0 014.194 4.2zm-50.331 0c0 2.32-1.877 4.2-4.194 4.2a4.197 4.197 0 01-4.194-4.2c0-2.32 1.878-4.2 4.194-4.2a4.196 4.196 0 014.194 4.2zm-50.33 0c0 2.32-1.878 4.2-4.194 4.2a4.197 4.197 0 01-4.195-4.2c0-2.32 1.878-4.2 4.195-4.2a4.197 4.197 0 014.194 4.2zm-50.331 0c0 2.32-1.878 4.2-4.194 4.2a4.197 4.197 0 01-4.194-4.2c0-2.32 1.878-4.2 4.194-4.2a4.197 4.197 0 014.194 4.2zM260.041 5.025c0 2.32-1.877 4.2-4.194 4.2a4.197 4.197 0 01-4.194-4.2c0-2.32 1.878-4.2 4.194-4.2a4.197 4.197 0 014.194 4.2zm-50.33 0c0 2.32-1.878 4.2-4.194 4.2a4.198 4.198 0 01-4.195-4.2c0-2.32 1.878-4.2 4.195-4.2a4.197 4.197 0 014.194 4.2zm-50.331 0c0 2.32-1.878 4.2-4.194 4.2a4.197 4.197 0 01-4.194-4.2c0-2.32 1.878-4.2 4.194-4.2a4.197 4.197 0 014.194 4.2zm-50.33 0c0 2.32-1.878 4.2-4.195 4.2a4.197 4.197 0 01-4.194-4.2c0-2.32 1.878-4.2 4.194-4.2a4.198 4.198 0 014.195 4.2zm-50.331 0c0 2.32-1.878 4.2-4.194 4.2a4.197 4.197 0 01-4.194-4.2c0-2.32 1.877-4.2 4.194-4.2a4.197 4.197 0 014.194 4.2zm-50.331 0c0 2.32-1.877 4.2-4.194 4.2A4.197 4.197 0 010 5.025c0-2.32 1.878-4.2 4.194-4.2a4.197 4.197 0 014.194 4.2zm226.488 25.201c0 2.32-1.878 4.2-4.194 4.2a4.197 4.197 0 01-4.194-4.2c0-2.32 1.878-4.2 4.194-4.2a4.197 4.197 0 014.194 4.2zm-50.33 0c0 2.32-1.878 4.2-4.195 4.2a4.197 4.197 0 01-4.194-4.2c0-2.32 1.878-4.2 4.194-4.2a4.198 4.198 0 014.195 4.2zm-50.331 0c0 2.32-1.878 4.2-4.194 4.2a4.197 4.197 0 01-4.194-4.2c0-2.32 1.877-4.2 4.194-4.2a4.197 4.197 0 014.194 4.2zm-50.331 0c0 2.32-1.877 4.2-4.194 4.2a4.197 4.197 0 01-4.194-4.2c0-2.32 1.878-4.2 4.194-4.2a4.197 4.197 0 014.194 4.2zm-50.33 0c0 2.32-1.878 4.2-4.195 4.2a4.197 4.197 0 01-4.194-4.2c0-2.32 1.878-4.2 4.195-4.2a4.197 4.197 0 014.194 4.2zm226.487 25.202c0 2.32-1.877 4.2-4.194 4.2a4.197 4.197 0 01-4.194-4.2c0-2.32 1.878-4.2 4.194-4.2a4.197 4.197 0 014.194 4.2zm-50.33 0c0 2.32-1.878 4.2-4.194 4.2a4.198 4.198 0 01-4.195-4.2c0-2.32 1.878-4.2 4.195-4.2a4.197 4.197 0 014.194 4.2zm-50.331 0c0 2.32-1.878 4.2-4.194 4.2a4.197 4.197 0 01-4.194-4.2c0-2.32 1.878-4.2 4.194-4.2a4.197 4.197 0 014.194 4.2zm-50.33 0c0 2.32-1.878 4.2-4.195 4.2a4.197 4.197 0 01-4.194-4.2c0-2.32 1.878-4.2 4.194-4.2a4.198 4.198 0 014.195 4.2zm-50.331 0c0 2.32-1.878 4.2-4.194 4.2a4.197 4.197 0 01-4.194-4.2c0-2.32 1.877-4.2 4.194-4.2a4.197 4.197 0 014.194 4.2zm-50.331 0c0 2.32-1.877 4.2-4.194 4.2A4.197 4.197 0 010 55.428c0-2.32 1.878-4.2 4.194-4.2a4.197 4.197 0 014.194 4.2zM234.876 80.63c0 2.319-1.878 4.2-4.194 4.2a4.197 4.197 0 01-4.194-4.2 4.198 4.198 0 014.194-4.201 4.197 4.197 0 014.194 4.2zm-50.33 0c0 2.319-1.878 4.2-4.195 4.2a4.197 4.197 0 01-4.194-4.2 4.198 4.198 0 014.194-4.201 4.198 4.198 0 014.195 4.2zm-50.331 0c0 2.319-1.878 4.2-4.194 4.2a4.197 4.197 0 01-4.194-4.2 4.197 4.197 0 014.194-4.201 4.197 4.197 0 014.194 4.2zm-50.331 0c0 2.319-1.877 4.2-4.194 4.2a4.197 4.197 0 01-4.194-4.2 4.198 4.198 0 014.194-4.201 4.197 4.197 0 014.194 4.2zm-50.33 0c0 2.319-1.878 4.2-4.195 4.2a4.197 4.197 0 01-4.194-4.2 4.198 4.198 0 014.195-4.201 4.197 4.197 0 014.194 4.2zm226.487 25.201c0 2.319-1.877 4.2-4.194 4.2a4.198 4.198 0 01-4.194-4.2 4.198 4.198 0 014.194-4.201 4.197 4.197 0 014.194 4.201zm-50.33 0c0 2.319-1.878 4.2-4.194 4.2a4.198 4.198 0 01-4.195-4.2 4.198 4.198 0 014.195-4.201 4.198 4.198 0 014.194 4.201zm-50.331 0c0 2.319-1.878 4.2-4.194 4.2a4.198 4.198 0 01-4.194-4.2 4.198 4.198 0 014.194-4.201 4.198 4.198 0 014.194 4.201zm-50.33 0c0 2.319-1.878 4.2-4.195 4.2a4.198 4.198 0 01-4.194-4.2 4.198 4.198 0 014.194-4.201 4.198 4.198 0 014.195 4.201zm-50.331 0c0 2.319-1.878 4.2-4.194 4.2a4.197 4.197 0 01-4.194-4.2 4.198 4.198 0 014.194-4.201 4.198 4.198 0 014.194 4.201zm-50.331 0c0 2.319-1.877 4.2-4.194 4.2a4.197 4.197 0 01-4.194-4.2 4.198 4.198 0 014.194-4.201 4.198 4.198 0 014.194 4.201zm226.488 25.201c0 2.32-1.878 4.2-4.194 4.2a4.197 4.197 0 01-4.194-4.2c0-2.32 1.878-4.2 4.194-4.2a4.197 4.197 0 014.194 4.2zm-50.33 0c0 2.32-1.878 4.2-4.195 4.2a4.197 4.197 0 01-4.194-4.2c0-2.32 1.878-4.2 4.194-4.2a4.197 4.197 0 014.195 4.2zm-50.331 0c0 2.32-1.878 4.2-4.194 4.2a4.196 4.196 0 01-4.194-4.2c0-2.32 1.877-4.2 4.194-4.2a4.197 4.197 0 014.194 4.2zm-50.331 0c0 2.32-1.877 4.2-4.194 4.2a4.197 4.197 0 01-4.194-4.2c0-2.32 1.878-4.2 4.194-4.2a4.197 4.197 0 014.194 4.2zm-50.33 0c0 2.32-1.878 4.2-4.195 4.2a4.197 4.197 0 01-4.194-4.2c0-2.32 1.878-4.2 4.195-4.2a4.197 4.197 0 014.194 4.2zm226.487 25.202c0 2.319-1.877 4.2-4.194 4.2a4.198 4.198 0 01-4.194-4.2 4.198 4.198 0 014.194-4.201 4.197 4.197 0 014.194 4.201zm-50.33 0c0 2.319-1.878 4.2-4.194 4.2a4.198 4.198 0 01-4.195-4.2 4.198 4.198 0 014.195-4.201 4.198 4.198 0 014.194 4.201zm-50.331 0c0 2.319-1.878 4.2-4.194 4.2a4.198 4.198 0 01-4.194-4.2 4.198 4.198 0 014.194-4.201 4.198 4.198 0 014.194 4.201zm-50.33 0c0 2.319-1.878 4.2-4.195 4.2a4.198 4.198 0 01-4.194-4.2 4.198 4.198 0 014.194-4.201 4.198 4.198 0 014.195 4.201zm-50.331 0c0 2.319-1.878 4.2-4.194 4.2a4.197 4.197 0 01-4.194-4.2 4.198 4.198 0 014.194-4.201 4.198 4.198 0 014.194 4.201zm-50.331 0c0 2.319-1.877 4.2-4.194 4.2a4.197 4.197 0 01-4.194-4.2 4.198 4.198 0 014.194-4.201 4.198 4.198 0 014.194 4.201zm226.488 25.201c0 2.32-1.878 4.2-4.194 4.2a4.197 4.197 0 01-4.194-4.2c0-2.32 1.878-4.2 4.194-4.2a4.197 4.197 0 014.194 4.2zm-50.33 0c0 2.32-1.878 4.2-4.195 4.2a4.197 4.197 0 01-4.194-4.2c0-2.32 1.878-4.2 4.194-4.2a4.197 4.197 0 014.195 4.2zm-50.331 0c0 2.32-1.878 4.2-4.194 4.2a4.196 4.196 0 01-4.194-4.2c0-2.32 1.877-4.2 4.194-4.2a4.197 4.197 0 014.194 4.2zm-50.331 0c0 2.32-1.877 4.2-4.194 4.2a4.197 4.197 0 01-4.194-4.2c0-2.32 1.878-4.2 4.194-4.2a4.197 4.197 0 014.194 4.2zm-50.33 0c0 2.32-1.878 4.2-4.195 4.2a4.197 4.197 0 01-4.194-4.2c0-2.32 1.878-4.2 4.195-4.2a4.197 4.197 0 014.194 4.2zm226.487 25.201a4.197 4.197 0 01-4.194 4.201 4.198 4.198 0 01-4.194-4.201c0-2.319 1.878-4.2 4.194-4.2a4.197 4.197 0 014.194 4.2zm-50.33 0a4.198 4.198 0 01-4.194 4.201 4.198 4.198 0 01-4.195-4.201c0-2.319 1.878-4.2 4.195-4.2a4.198 4.198 0 014.194 4.2zm-50.331 0a4.198 4.198 0 01-4.194 4.201 4.198 4.198 0 01-4.194-4.201c0-2.319 1.878-4.2 4.194-4.2a4.198 4.198 0 014.194 4.2zm-50.33 0a4.198 4.198 0 01-4.195 4.201 4.198 4.198 0 01-4.194-4.201c0-2.319 1.878-4.2 4.194-4.2a4.198 4.198 0 014.195 4.2zm-50.331 0a4.198 4.198 0 01-4.194 4.201 4.198 4.198 0 01-4.194-4.201c0-2.319 1.877-4.2 4.194-4.2a4.197 4.197 0 014.194 4.2zm-50.331 0a4.198 4.198 0 01-4.194 4.201A4.198 4.198 0 010 206.636c0-2.319 1.878-4.2 4.194-4.2a4.197 4.197 0 014.194 4.2zm226.488 25.202c0 2.32-1.878 4.2-4.194 4.2a4.197 4.197 0 01-4.194-4.2c0-2.32 1.878-4.2 4.194-4.2a4.197 4.197 0 014.194 4.2zm-50.33 0c0 2.32-1.878 4.2-4.195 4.2a4.197 4.197 0 01-4.194-4.2c0-2.32 1.878-4.2 4.194-4.2a4.197 4.197 0 014.195 4.2zm-50.331 0c0 2.32-1.878 4.2-4.194 4.2a4.196 4.196 0 01-4.194-4.2c0-2.32 1.877-4.2 4.194-4.2a4.197 4.197 0 014.194 4.2zm-50.331 0c0 2.32-1.877 4.2-4.194 4.2a4.197 4.197 0 01-4.194-4.2c0-2.32 1.878-4.2 4.194-4.2a4.197 4.197 0 014.194 4.2zm-50.33 0c0 2.32-1.878 4.2-4.195 4.2a4.197 4.197 0 01-4.194-4.2c0-2.32 1.878-4.2 4.195-4.2a4.197 4.197 0 014.194 4.2zm226.487 25.201a4.197 4.197 0 01-4.194 4.201 4.198 4.198 0 01-4.194-4.201c0-2.32 1.878-4.2 4.194-4.2a4.196 4.196 0 014.194 4.2zm-50.33 0a4.198 4.198 0 01-4.194 4.201 4.198 4.198 0 01-4.195-4.201c0-2.32 1.878-4.2 4.195-4.2a4.197 4.197 0 014.194 4.2zm-50.331 0a4.198 4.198 0 01-4.194 4.201 4.198 4.198 0 01-4.194-4.201c0-2.32 1.878-4.2 4.194-4.2a4.197 4.197 0 014.194 4.2zm-50.33 0a4.198 4.198 0 01-4.195 4.201 4.198 4.198 0 01-4.194-4.201c0-2.32 1.878-4.2 4.194-4.2a4.197 4.197 0 014.195 4.2zm-50.331 0a4.198 4.198 0 01-4.194 4.201 4.198 4.198 0 01-4.194-4.201c0-2.32 1.877-4.2 4.194-4.2a4.197 4.197 0 014.194 4.2zm-50.331 0a4.198 4.198 0 01-4.194 4.201A4.198 4.198 0 010 257.039c0-2.32 1.878-4.2 4.194-4.2a4.197 4.197 0 014.194 4.2zm226.488 25.202c0 2.319-1.878 4.2-4.194 4.2a4.198 4.198 0 01-4.194-4.2 4.198 4.198 0 014.194-4.201 4.198 4.198 0 014.194 4.201zm-50.33 0c0 2.319-1.878 4.2-4.195 4.2a4.198 4.198 0 01-4.194-4.2 4.198 4.198 0 014.194-4.201 4.198 4.198 0 014.195 4.201zm-50.331 0c0 2.319-1.878 4.2-4.194 4.2a4.197 4.197 0 01-4.194-4.2 4.197 4.197 0 014.194-4.201 4.198 4.198 0 014.194 4.201zm-50.331 0c0 2.319-1.877 4.2-4.194 4.2a4.197 4.197 0 01-4.194-4.2 4.198 4.198 0 014.194-4.201 4.198 4.198 0 014.194 4.201zm-50.33 0c0 2.319-1.878 4.2-4.195 4.2a4.197 4.197 0 01-4.194-4.2 4.198 4.198 0 014.195-4.201 4.198 4.198 0 014.194 4.201zm226.487 25.201c0 2.32-1.877 4.2-4.194 4.2a4.197 4.197 0 01-4.194-4.2c0-2.32 1.878-4.2 4.194-4.2a4.196 4.196 0 014.194 4.2zm-50.33 0c0 2.32-1.878 4.2-4.194 4.2a4.197 4.197 0 01-4.195-4.2c0-2.32 1.878-4.2 4.195-4.2a4.197 4.197 0 014.194 4.2zm-50.331 0c0 2.32-1.878 4.2-4.194 4.2a4.197 4.197 0 01-4.194-4.2c0-2.32 1.878-4.2 4.194-4.2a4.197 4.197 0 014.194 4.2zm-50.33 0c0 2.32-1.878 4.2-4.195 4.2a4.197 4.197 0 01-4.194-4.2c0-2.32 1.878-4.2 4.194-4.2a4.197 4.197 0 014.195 4.2zm-50.331 0c0 2.32-1.878 4.2-4.194 4.2a4.197 4.197 0 01-4.194-4.2c0-2.32 1.877-4.2 4.194-4.2a4.197 4.197 0 014.194 4.2zm-50.331 0c0 2.32-1.877 4.2-4.194 4.2a4.197 4.197 0 01-4.194-4.2c0-2.32 1.878-4.2 4.194-4.2a4.197 4.197 0 014.194 4.2zM763.348 5.025c0 2.32-1.878 4.2-4.195 4.2a4.197 4.197 0 01-4.194-4.2c0-2.32 1.878-4.2 4.194-4.2a4.198 4.198 0 014.195 4.2zm-50.331 0c0 2.32-1.878 4.2-4.194 4.2a4.197 4.197 0 01-4.194-4.2c0-2.32 1.877-4.2 4.194-4.2a4.197 4.197 0 014.194 4.2zm-50.331 0c0 2.32-1.877 4.2-4.194 4.2a4.197 4.197 0 01-4.194-4.2c0-2.32 1.878-4.2 4.194-4.2a4.197 4.197 0 014.194 4.2zm-50.33 0c0 2.32-1.878 4.2-4.195 4.2a4.197 4.197 0 01-4.194-4.2c0-2.32 1.878-4.2 4.194-4.2a4.198 4.198 0 014.195 4.2zm-50.331 0c0 2.32-1.878 4.2-4.194 4.2a4.197 4.197 0 01-4.194-4.2c0-2.32 1.878-4.2 4.194-4.2a4.197 4.197 0 014.194 4.2zm176.157 25.201c0 2.32-1.878 4.2-4.194 4.2a4.197 4.197 0 01-4.194-4.2c0-2.32 1.878-4.2 4.194-4.2a4.197 4.197 0 014.194 4.2zm-50.33 0c0 2.32-1.878 4.2-4.195 4.2a4.197 4.197 0 01-4.194-4.2c0-2.32 1.878-4.2 4.194-4.2a4.198 4.198 0 014.195 4.2zm-50.331 0c0 2.32-1.878 4.2-4.194 4.2a4.197 4.197 0 01-4.194-4.2c0-2.32 1.877-4.2 4.194-4.2a4.197 4.197 0 014.194 4.2zm-50.331 0c0 2.32-1.877 4.2-4.194 4.2a4.197 4.197 0 01-4.194-4.2c0-2.32 1.878-4.2 4.194-4.2a4.197 4.197 0 014.194 4.2zm-50.33 0c0 2.32-1.878 4.2-4.194 4.2a4.198 4.198 0 01-4.195-4.2c0-2.32 1.878-4.2 4.195-4.2a4.197 4.197 0 014.194 4.2zm226.488 25.202c0 2.32-1.878 4.2-4.195 4.2a4.197 4.197 0 01-4.194-4.2c0-2.32 1.878-4.2 4.194-4.2a4.198 4.198 0 014.195 4.2zm-50.331 0c0 2.32-1.878 4.2-4.194 4.2a4.197 4.197 0 01-4.194-4.2c0-2.32 1.877-4.2 4.194-4.2a4.197 4.197 0 014.194 4.2zm-50.331 0c0 2.32-1.877 4.2-4.194 4.2a4.197 4.197 0 01-4.194-4.2c0-2.32 1.878-4.2 4.194-4.2a4.197 4.197 0 014.194 4.2zm-50.33 0c0 2.32-1.878 4.2-4.195 4.2a4.197 4.197 0 01-4.194-4.2c0-2.32 1.878-4.2 4.194-4.2a4.198 4.198 0 014.195 4.2zm-50.331 0c0 2.32-1.878 4.2-4.194 4.2a4.197 4.197 0 01-4.194-4.2c0-2.32 1.878-4.2 4.194-4.2a4.197 4.197 0 014.194 4.2zM738.182 80.63c0 2.319-1.878 4.2-4.194 4.2a4.197 4.197 0 01-4.194-4.2 4.198 4.198 0 014.194-4.201 4.197 4.197 0 014.194 4.2zm-50.33 0c0 2.319-1.878 4.2-4.195 4.2a4.197 4.197 0 01-4.194-4.2 4.198 4.198 0 014.194-4.201 4.198 4.198 0 014.195 4.2zm-50.331 0c0 2.319-1.878 4.2-4.194 4.2a4.197 4.197 0 01-4.194-4.2 4.197 4.197 0 014.194-4.201 4.197 4.197 0 014.194 4.2zm-50.331 0c0 2.319-1.877 4.2-4.194 4.2a4.197 4.197 0 01-4.194-4.2 4.198 4.198 0 014.194-4.201 4.197 4.197 0 014.194 4.2zm-50.33 0c0 2.319-1.878 4.2-4.194 4.2a4.198 4.198 0 01-4.195-4.2 4.198 4.198 0 014.195-4.201 4.197 4.197 0 014.194 4.2zm226.488 25.201c0 2.319-1.878 4.2-4.195 4.2a4.198 4.198 0 01-4.194-4.2 4.198 4.198 0 014.194-4.201 4.198 4.198 0 014.195 4.201zm-50.331 0c0 2.319-1.878 4.2-4.194 4.2a4.197 4.197 0 01-4.194-4.2 4.197 4.197 0 014.194-4.201 4.198 4.198 0 014.194 4.201zm-50.331 0c0 2.319-1.877 4.2-4.194 4.2a4.198 4.198 0 01-4.194-4.2 4.198 4.198 0 014.194-4.201 4.197 4.197 0 014.194 4.201zm-50.33 0c0 2.319-1.878 4.2-4.195 4.2a4.198 4.198 0 01-4.194-4.2 4.198 4.198 0 014.194-4.201 4.198 4.198 0 014.195 4.201zm-50.331 0c0 2.319-1.878 4.2-4.194 4.2a4.198 4.198 0 01-4.194-4.2 4.198 4.198 0 014.194-4.201 4.198 4.198 0 014.194 4.201zm176.157 25.201c0 2.32-1.878 4.2-4.194 4.2a4.197 4.197 0 01-4.194-4.2c0-2.32 1.878-4.2 4.194-4.2a4.197 4.197 0 014.194 4.2zm-50.33 0c0 2.32-1.878 4.2-4.195 4.2a4.197 4.197 0 01-4.194-4.2c0-2.32 1.878-4.2 4.194-4.2a4.197 4.197 0 014.195 4.2zm-50.331 0c0 2.32-1.878 4.2-4.194 4.2a4.196 4.196 0 01-4.194-4.2c0-2.32 1.877-4.2 4.194-4.2a4.197 4.197 0 014.194 4.2zm-50.331 0c0 2.32-1.877 4.2-4.194 4.2a4.197 4.197 0 01-4.194-4.2c0-2.32 1.878-4.2 4.194-4.2a4.196 4.196 0 014.194 4.2zm-50.33 0c0 2.32-1.878 4.2-4.194 4.2a4.197 4.197 0 01-4.195-4.2c0-2.32 1.878-4.2 4.195-4.2a4.197 4.197 0 014.194 4.2zm226.488 25.202c0 2.319-1.878 4.2-4.195 4.2a4.198 4.198 0 01-4.194-4.2 4.198 4.198 0 014.194-4.201 4.198 4.198 0 014.195 4.201zm-50.331 0c0 2.319-1.878 4.2-4.194 4.2a4.197 4.197 0 01-4.194-4.2 4.197 4.197 0 014.194-4.201 4.198 4.198 0 014.194 4.201zm-50.331 0c0 2.319-1.877 4.2-4.194 4.2a4.198 4.198 0 01-4.194-4.2 4.198 4.198 0 014.194-4.201 4.197 4.197 0 014.194 4.201zm-50.33 0c0 2.319-1.878 4.2-4.195 4.2a4.198 4.198 0 01-4.194-4.2 4.198 4.198 0 014.194-4.201 4.198 4.198 0 014.195 4.201zm-50.331 0c0 2.319-1.878 4.2-4.194 4.2a4.198 4.198 0 01-4.194-4.2 4.198 4.198 0 014.194-4.201 4.198 4.198 0 014.194 4.201zm176.157 25.201c0 2.32-1.878 4.2-4.194 4.2a4.197 4.197 0 01-4.194-4.2c0-2.32 1.878-4.2 4.194-4.2a4.197 4.197 0 014.194 4.2zm-50.33 0c0 2.32-1.878 4.2-4.195 4.2a4.197 4.197 0 01-4.194-4.2c0-2.32 1.878-4.2 4.194-4.2a4.197 4.197 0 014.195 4.2zm-50.331 0c0 2.32-1.878 4.2-4.194 4.2a4.196 4.196 0 01-4.194-4.2c0-2.32 1.877-4.2 4.194-4.2a4.197 4.197 0 014.194 4.2zm-50.331 0c0 2.32-1.877 4.2-4.194 4.2a4.197 4.197 0 01-4.194-4.2c0-2.32 1.878-4.2 4.194-4.2a4.196 4.196 0 014.194 4.2zm-50.33 0c0 2.32-1.878 4.2-4.194 4.2a4.197 4.197 0 01-4.195-4.2c0-2.32 1.878-4.2 4.195-4.2a4.197 4.197 0 014.194 4.2zm226.488 25.201a4.198 4.198 0 01-4.195 4.201 4.198 4.198 0 01-4.194-4.201c0-2.319 1.878-4.2 4.194-4.2a4.198 4.198 0 014.195 4.2zm-50.331 0a4.198 4.198 0 01-4.194 4.201 4.197 4.197 0 01-4.194-4.201c0-2.319 1.877-4.2 4.194-4.2a4.198 4.198 0 014.194 4.2zm-50.331 0a4.197 4.197 0 01-4.194 4.201 4.198 4.198 0 01-4.194-4.201c0-2.319 1.878-4.2 4.194-4.2a4.197 4.197 0 014.194 4.2zm-50.33 0a4.198 4.198 0 01-4.195 4.201 4.198 4.198 0 01-4.194-4.201c0-2.319 1.878-4.2 4.194-4.2a4.198 4.198 0 014.195 4.2zm-50.331 0a4.198 4.198 0 01-4.194 4.201 4.198 4.198 0 01-4.194-4.201c0-2.319 1.878-4.2 4.194-4.2a4.198 4.198 0 014.194 4.2zm176.157 25.202c0 2.32-1.878 4.2-4.194 4.2a4.197 4.197 0 01-4.194-4.2c0-2.32 1.878-4.2 4.194-4.2a4.197 4.197 0 014.194 4.2zm-50.33 0c0 2.32-1.878 4.2-4.195 4.2a4.197 4.197 0 01-4.194-4.2c0-2.32 1.878-4.2 4.194-4.2a4.197 4.197 0 014.195 4.2zm-50.331 0c0 2.32-1.878 4.2-4.194 4.2a4.196 4.196 0 01-4.194-4.2c0-2.32 1.877-4.2 4.194-4.2a4.197 4.197 0 014.194 4.2zm-50.331 0c0 2.32-1.877 4.2-4.194 4.2a4.197 4.197 0 01-4.194-4.2c0-2.32 1.878-4.2 4.194-4.2a4.196 4.196 0 014.194 4.2zm-50.33 0c0 2.32-1.878 4.2-4.194 4.2a4.197 4.197 0 01-4.195-4.2c0-2.32 1.878-4.2 4.195-4.2a4.197 4.197 0 014.194 4.2zm226.488 25.201a4.198 4.198 0 01-4.195 4.201 4.198 4.198 0 01-4.194-4.201c0-2.32 1.878-4.2 4.194-4.2a4.197 4.197 0 014.195 4.2zm-50.331 0a4.198 4.198 0 01-4.194 4.201 4.197 4.197 0 01-4.194-4.201c0-2.32 1.877-4.2 4.194-4.2a4.197 4.197 0 014.194 4.2zm-50.331 0a4.197 4.197 0 01-4.194 4.201 4.198 4.198 0 01-4.194-4.201c0-2.32 1.878-4.2 4.194-4.2a4.196 4.196 0 014.194 4.2zm-50.33 0a4.198 4.198 0 01-4.195 4.201 4.198 4.198 0 01-4.194-4.201c0-2.32 1.878-4.2 4.194-4.2a4.197 4.197 0 014.195 4.2zm-50.331 0a4.198 4.198 0 01-4.194 4.201 4.198 4.198 0 01-4.194-4.201c0-2.32 1.878-4.2 4.194-4.2a4.197 4.197 0 014.194 4.2zm176.157 25.202c0 2.319-1.878 4.2-4.194 4.2a4.198 4.198 0 01-4.194-4.2 4.198 4.198 0 014.194-4.201 4.198 4.198 0 014.194 4.201zm-50.33 0c0 2.319-1.878 4.2-4.195 4.2a4.198 4.198 0 01-4.194-4.2 4.198 4.198 0 014.194-4.201 4.198 4.198 0 014.195 4.201zm-50.331 0c0 2.319-1.878 4.2-4.194 4.2a4.197 4.197 0 01-4.194-4.2 4.197 4.197 0 014.194-4.201 4.198 4.198 0 014.194 4.201zm-50.331 0c0 2.319-1.877 4.2-4.194 4.2a4.198 4.198 0 01-4.194-4.2 4.198 4.198 0 014.194-4.201 4.197 4.197 0 014.194 4.201zm-50.33 0c0 2.319-1.878 4.2-4.194 4.2a4.198 4.198 0 01-4.195-4.2 4.198 4.198 0 014.195-4.201 4.198 4.198 0 014.194 4.201zm226.488 25.201c0 2.32-1.878 4.2-4.195 4.2a4.197 4.197 0 01-4.194-4.2c0-2.32 1.878-4.2 4.194-4.2a4.197 4.197 0 014.195 4.2zm-50.331 0c0 2.32-1.878 4.2-4.194 4.2a4.196 4.196 0 01-4.194-4.2c0-2.32 1.877-4.2 4.194-4.2a4.197 4.197 0 014.194 4.2zm-50.331 0c0 2.32-1.877 4.2-4.194 4.2a4.197 4.197 0 01-4.194-4.2c0-2.32 1.878-4.2 4.194-4.2a4.196 4.196 0 014.194 4.2zm-50.33 0c0 2.32-1.878 4.2-4.195 4.2a4.197 4.197 0 01-4.194-4.2c0-2.32 1.878-4.2 4.194-4.2a4.197 4.197 0 014.195 4.2zm-50.331 0c0 2.32-1.878 4.2-4.194 4.2a4.197 4.197 0 01-4.194-4.2c0-2.32 1.878-4.2 4.194-4.2a4.197 4.197 0 014.194 4.2z" fill="#333"/></svg>