<svg width="320" height="201" fill="none" xmlns="http://www.w3.org/2000/svg"><g clip-path="url(#clip0)"><path d="M274.74 111.965h-57.398v10.373h57.398v-10.373zm-26.673-4.847v.256h42.591L276.021 5.807v-.22h-42.505l14.51 100.843c.028.228.042.458.041.688zm57.274 19.541a.578.578 0 00-.51-.362h-43.25l8.408 21.301a4.532 4.532 0 01-1.561 5.332l-44.312 32.071a2.457 2.457 0 01-.311.179l-.148.071v10.959h90.541a.57.57 0 00.597-.571v-45.097l-9.454-23.883z" fill="#000"/><path d="M212.751 111.965h-96.745v10.373h96.745v-10.373zm6.948 73.409H4.271v10.836h215.428v-10.836zm46.627-36.322l-8.985-22.755H60.147a.572.572 0 00-.51.362l-9.587 24.235a1.947 1.947 0 01-.678.877l-40.97 29.643h213.266c.142 0 .285.017.423.051h.112l43.878-31.76a.57.57 0 00.245-.653zM228.908 5.807l-.03-.22H100.709L86.107 107.084l-.04.291h157.459L228.908 5.807z" fill="#F6F0E1"/><path d="M221.679 183.393H2.291v14.796h219.388v-14.796z" stroke="#000" stroke-width="4.583" stroke-linecap="round" stroke-linejoin="round"/><path d="M243.225 109.669H86.358a2.55 2.55 0 01-2.526-2.914L98.41 5.48a2.551 2.551 0 012.526-2.189h127.719a2.551 2.551 0 012.551 2.189l14.571 101.275a2.548 2.548 0 01-1.483 2.691c-.336.151-.7.226-1.068.223v0z" stroke="#000" stroke-width="5.231" stroke-miterlimit="10"/><path d="M223.72 3.291h52.071a2.551 2.551 0 012.551 2.189l14.572 101.275a2.562 2.562 0 01-.598 2.034 2.552 2.552 0 01-1.928.88h-51.362" stroke="#000" stroke-width="5.231" stroke-miterlimit="10"/><path d="M114.026 124.317v-14.648h101.021v14.648" stroke="#000" stroke-width="4.583" stroke-miterlimit="10"/><path d="M222.959 183.393l44.317-32.066a2.554 2.554 0 00.877-3l-9.479-24.01H60.148a2.548 2.548 0 00-2.372 1.612l-9.567 24.24-45.918 33.224" stroke="#000" stroke-width="4.583" stroke-linecap="round" stroke-linejoin="round"/><path d="M211.984 198.189h102.215a2.55 2.55 0 002.551-2.551v-45.469l-9.567-24.24a2.55 2.55 0 00-2.372-1.612h-61.873" stroke="#000" stroke-width="4.583" stroke-linecap="round" stroke-linejoin="round"/><path d="M277.036 109.669v13.52m-61.99.174v-13.694" stroke="#000" stroke-width="5.231" stroke-miterlimit="10"/><path d="M251.877 134.01H64.795l-6.377 14.623h200.255l-6.796-14.623zM71.102 145.276a3.698 3.698 0 110-7.396 3.698 3.698 0 010 7.396zm38.01-1.148H80.03v-5.102h29.082v5.102zm137.372 1.148h-33.796v-7.398h33.796v7.398zm1.96 11.01l-27.745 19.964h-41.153l3.699-2.551h-.153l24.194-17.413h41.158z" fill="#000"/><path opacity=".66" d="M93.72 173.7h.153l-3.7 2.551 3.547-2.551z" fill="#0FF"/><path d="M200.184 156.286l-24.194 17.413-3.546 2.551h-82.27l3.699-2.551h-.153l24.194-17.413h82.27zm-150.23 0l-27.98 19.964h61.098l3.546-2.551 24.198-17.413H49.954zm-17.811 16.903l10.082-7.255H63.54l-10.072 7.255H32.143zm49.25 0h-22l10.082-7.255h22.01l-10.092 7.255zM221.159 57.312a154.638 154.638 0 00-2.903-30.21 10.715 10.715 0 00-9.143-8.607 346.956 346.956 0 00-45.709-2.959c-2.555 0-5.106.034-7.653.102a351.93 351.93 0 00-37.164 2.847 10.715 10.715 0 00-9.183 8.786 166.722 166.722 0 00-2.684 30.163 155.12 155.12 0 002.903 30.21 10.714 10.714 0 009.143 8.606 346.927 346.927 0 0045.704 2.954c2.561 0 5.112-.034 7.653-.102a352.09 352.09 0 0037.163-2.842 10.719 10.719 0 009.184-8.785 166.816 166.816 0 002.689-30.163z" fill="#000"/></g><defs><clipPath id="clip0"><path fill="#fff" transform="translate(0 .485)" d="M0 0h319.388v200H0z"/></clipPath></defs></svg>