<svg width="177" height="423" fill="none" xmlns="http://www.w3.org/2000/svg"><g opacity=".5" filter="url(#filter0_f)"><ellipse cx="146.879" cy="288.737" rx="53.444" ry="22.268" transform="rotate(28.202 146.879 288.737)" fill="#282828"/></g><mask id="a" maskUnits="userSpaceOnUse" x="33" y="0" width="343" height="343"><path fill-rule="evenodd" clip-rule="evenodd" d="M271.833 203.642c-17.867 37.335-62.617 53.118-99.953 35.252-35.563-17.018-51.572-58.428-37.571-94.589l-48.372-23.147c-26.705 62.877.597 136.24 62.836 166.023 64.004 30.629 140.719 3.572 171.347-60.432 30.629-64.005 3.572-140.72-60.432-171.348-62.239-29.783-136.497-5.02-168.71 55.221l48.373 23.148c19.376-33.588 61.666-47.1 97.229-30.081 37.336 17.866 53.119 62.617 35.253 99.953z" fill="#fff"/></mask><g mask="url(#a)"><path fill="#333" d="M77.678 110.204l249.865 119.569-55.684 116.363-249.865-119.57z"/><path fill="#fff" d="M132.93-5.256l249.864 119.569-55.252 115.46L77.678 110.206z"/></g><defs><filter id="filter0_f" x=".182" y="154.782" width="293.393" height="267.91" filterUnits="userSpaceOnUse" color-interpolation-filters="sRGB"><feFlood flood-opacity="0" result="BackgroundImageFix"/><feBlend in="SourceGraphic" in2="BackgroundImageFix" result="shape"/><feGaussianBlur stdDeviation="44.537" result="effect1_foregroundBlur"/></filter></defs></svg>