<svg width="343" height="343" fill="none" xmlns="http://www.w3.org/2000/svg"><mask id="a" maskUnits="userSpaceOnUse" x="0" y="0" width="343" height="343"><path fill-rule="evenodd" clip-rule="evenodd" d="M238.833 203.642c-17.867 37.335-62.617 53.118-99.953 35.252-35.563-17.018-51.572-58.428-37.571-94.589l-48.372-23.147c-26.705 62.877.597 136.24 62.836 166.023 64.004 30.629 140.719 3.572 171.347-60.432 30.629-64.005 3.572-140.72-60.432-171.348-62.239-29.783-136.497-5.02-168.71 55.221l48.373 23.148c19.376-33.588 61.666-47.1 97.229-30.081 37.336 17.866 53.119 62.617 35.253 99.953z" fill="#fff"/></mask><g mask="url(#a)"><path fill="#333" d="M44.679 110.204l249.865 119.569-55.684 116.363-249.865-119.569z"/><path fill="#fff" d="M99.93-5.256l249.865 119.569-55.252 115.46L44.68 110.206z"/></g></svg>