<svg width="18" height="15" fill="none" xmlns="http://www.w3.org/2000/svg"><path fill-rule="evenodd" clip-rule="evenodd" d="M16.333 1.667c.369 0 .667.298.667.666v4a.667.667 0 01-.667.667h-4a.667.667 0 010-1.333h3.334V2.333c0-.368.298-.666.666-.666zM1 9c0-.368.298-.667.667-.667h4a.667.667 0 010 1.334H2.333V13A.667.667 0 111 13V9z" fill="#333"/><path fill-rule="evenodd" clip-rule="evenodd" d="M10.478 2.543a5.333 5.333 0 00-6.51 3.344.667.667 0 01-1.256-.444 6.667 6.667 0 0110.992-2.497l3.086 2.9a.667.667 0 11-.913.972L12.783 3.91a5.333 5.333 0 00-2.305-1.368zM1.181 8.542a.667.667 0 01.942-.03l3.094 2.907.015.015a5.333 5.333 0 008.8-1.991.667.667 0 011.257.444 6.667 6.667 0 01-10.993 2.497l-3.086-2.9a.667.667 0 01-.03-.942z" fill="#333"/><path clip-rule="evenodd" d="M16.333 1.667c.369 0 .667.298.667.666v4a.667.667 0 01-.667.667h-4a.667.667 0 010-1.333h3.334V2.333c0-.368.298-.666.666-.666zM1 9c0-.368.298-.667.667-.667h4a.667.667 0 010 1.334H2.333V13A.667.667 0 111 13V9z" stroke="#333" stroke-width=".5" stroke-linecap="round" stroke-linejoin="round"/><path clip-rule="evenodd" d="M10.478 2.543a5.333 5.333 0 00-6.51 3.344.667.667 0 01-1.256-.444 6.667 6.667 0 0110.992-2.497l3.086 2.9a.667.667 0 11-.913.972L12.783 3.91a5.333 5.333 0 00-2.305-1.368zM1.181 8.542a.667.667 0 01.942-.03l3.094 2.907.015.015a5.333 5.333 0 008.8-1.991.667.667 0 011.257.444 6.667 6.667 0 01-10.993 2.497l-3.086-2.9a.667.667 0 01-.03-.942z" stroke="#333" stroke-width=".5" stroke-linecap="round" stroke-linejoin="round"/></svg>