<svg width="193" height="100" fill="none" xmlns="http://www.w3.org/2000/svg"><g clip-path="url(#clip0)"><path d="M41.438 45.475H25.105a2.47 2.47 0 00-2.47 2.47v8.228H3.5a2.469 2.469 0 00-2.47 2.469v37.963a2.469 2.469 0 002.47 2.469h185.592a2.469 2.469 0 002.47-2.47V58.643a2.47 2.47 0 00-2.47-2.47h-36.679l7.186-28.246a2.477 2.477 0 00-.44-2.131 2.476 2.476 0 00-1.955-.956h-10.568l1.58-6.21h13.617a2.47 2.47 0 002.469-2.469v-3.814c0-6.692-3.413-11.111-8.691-11.216H59.722a2.47 2.47 0 00-.969.197l-.099.037c-2.296.543-6.438 2.531-8.457 9.698l-.617-.093.617.148-8.759 34.358z" fill="#F6F0E1"/><path d="M189.099 58.642H3.5v37.963h185.599V58.642z" stroke="#000" stroke-width="6.543" stroke-linecap="round" stroke-linejoin="round"/><path d="M189.093 58.642h-29.217v37.963h29.217V58.642z" fill="#000" stroke="#000" stroke-width="6.543" stroke-linecap="round" stroke-linejoin="round"/><path d="M3.5 81.481h156.377m-140.278 0v15.124" stroke="#000" stroke-width="6.543" stroke-linecap="round" stroke-linejoin="round"/><path d="M20.988 65.586h-8.95v8.951h8.95v-8.95zm131.173 0h-40.895v8.951h40.895v-8.95z" fill="#000"/><path d="M30.401 70.062h29.013" stroke="#000" stroke-width="6.543" stroke-linecap="square" stroke-linejoin="round"/><path d="M135.494 58.642l11.932-46.914c1.58-5.592 4.938-8.197 8.129-8.13 4.531.106 6.278 4.26 6.278 8.748v3.82H148.66" stroke="#000" stroke-width="6.543" stroke-linecap="round" stroke-linejoin="round"/><path d="M149.235 58.642l7.975-31.327h-11.839M43.358 47.944l9.216-36.216c1.575-5.592 4.939-8.197 8.124-8.13m94.857.001H59.722M47.735 58.642V47.944h-22.63v10.698" stroke="#000" stroke-width="6.543" stroke-linecap="round" stroke-linejoin="round"/><path d="M99.074 19.907l-1.568 6.173H63.42l1.574-6.173h34.08zm30.432 0l-1.574 6.173h-20.599l1.562-6.173h20.611zm-51.537 16.05l-1.568 6.173H59.34l1.568-6.173H77.97zm47.451 0l-1.568 6.173H85.519l1.567-6.173h38.334z" fill="#000"/></g><defs><clipPath id="clip0"><path fill="#fff" d="M0 0h192.593v100H0z"/></clipPath></defs></svg>