<svg width="100" height="92" fill="none" xmlns="http://www.w3.org/2000/svg"><g clip-path="url(#clip0)"><path d="M96.635 26.887h-1.258V5.157a4.094 4.094 0 00-4.088-4.088H49.717a4.183 4.183 0 00-4.183 4.182v11.164H24.528a4.182 4.182 0 00-4.182 4.182v33.05l-4.686-6.402a2.585 2.585 0 00-4.176 0L1.258 61.19a2.585 2.585 0 002.088 4.113h1.257v21.723a4.094 4.094 0 004.088 4.088h41.585a4.188 4.188 0 004.183-4.182v-4.673H81.98a4.189 4.189 0 004.182-4.189V46.05l.566-.063a2.515 2.515 0 001.805-1.037l10.208-13.944a2.585 2.585 0 00-2.082-4.12h-.025z" fill="#F6F0E1"/><path d="M85.206 44.51v33.56a3.24 3.24 0 01-3.239 3.245H53.502v-6.472h22.012a3.245 3.245 0 003.24-3.24V35.649l1 1.365 5.207 7.138.176.24a.237.237 0 00.07.119z" fill="#000" stroke="#000" stroke-width="3.145" stroke-linecap="round" stroke-linejoin="round"/><path d="M78.729 35.956v35.635a3.244 3.244 0 01-3.258 3.252H24.528a3.239 3.239 0 01-3.24-3.24v-6.98m-.031-8.083V20.599a3.238 3.238 0 013.27-3.24h50.944a3.245 3.245 0 013.245 3.24v7.232" stroke="#000" stroke-width="3.145" stroke-linecap="round" stroke-linejoin="round"/><path d="M45.402 32.862v9.232a.629.629 0 00.63.63h32.704M74.081 30.44H57.553a.63.63 0 01-.63-.629V17.358m-23.351 0v36.894a.629.629 0 00.63.628h7.936a3.245 3.245 0 013.246 3.24v2.59m11.521 14.133v-19.78a.629.629 0 01.63-.629h8.427m1.855 20.409v-9.56a.63.63 0 01.629-.629H78.71M45.402 32.541a2.918 2.918 0 100-5.837 2.918 2.918 0 000 5.837zm0 34.509a2.918 2.918 0 100-5.836 2.918 2.918 0 000 5.837z" stroke="#000" stroke-width="3.145" stroke-linecap="round" stroke-linejoin="round"/><path d="M68.892 57.333a2.918 2.918 0 100-5.836 2.918 2.918 0 000 5.836zM27.735 90.17H8.68a3.143 3.143 0 01-3.145-3.145V64.384h-2.19a1.64 1.64 0 01-1.327-2.61l3.516-4.812 1.296-1.767 5.39-7.396a1.636 1.636 0 012.647 0l5.39 7.371 1 1.371 3.774 5.201a1.648 1.648 0 01-1.327 2.617h-2.447v19.333" stroke="#000" stroke-width="3.145" stroke-linecap="round" stroke-linejoin="round"/><path d="M53.502 74.843v12.1a3.239 3.239 0 01-3.239 3.24H24.402a3.145 3.145 0 01-3.145-3.145V74.843h32.245zm18.743-72.83H91.3a3.145 3.145 0 013.145 3.144V27.83h2.189a1.642 1.642 0 011.327 2.61l-3.516 4.812-1.258 1.76-5.39 7.378a1.64 1.64 0 01-2.56.12c-.037-.038-.063-.082-.094-.12l-.176-.239-5.208-7.138-1-1.365-.27-.371-3.541-4.837a1.643 1.643 0 011.327-2.61h2.516V8.497" stroke="#000" stroke-width="3.145" stroke-linecap="round" stroke-linejoin="round"/><path d="M46.477 17.358v-12.1a3.24 3.24 0 013.24-3.24h25.861a3.145 3.145 0 013.145 3.145v12.195H46.478zm-25.22 47.265H33.57v9.641" stroke="#000" stroke-width="3.145" stroke-linecap="round" stroke-linejoin="round"/><path d="M27.735 74.843v15.34h-1.83a4.648 4.648 0 01-4.648-4.648V74.843h6.478z" fill="#000" stroke="#000" stroke-width="1.258" stroke-linecap="round" stroke-linejoin="round"/></g><defs><clipPath id="clip0"><path fill="#fff" d="M0 0h100v91.824H0z"/></clipPath></defs></svg>