<svg width="100" height="100" fill="none" xmlns="http://www.w3.org/2000/svg"><g clip-path="url(#clip0)"><path d="M82.716 17.76l-.074-.069a46.073 46.073 0 10-64.926 64.815l.08.08c8.568 10.439 20.982 16.18 34.926 16.18a46.149 46.149 0 0046.099-46.1c0-13.913-5.722-26.308-16.105-34.907z" fill="#F6F0E1"/><path d="M46.846 14.518a1.852 1.852 0 110-3.704 1.852 1.852 0 010 3.704zm31.198 53.18a1.852 1.852 0 110-3.704 1.852 1.852 0 010 3.704zm-61.729-.618a1.852 1.852 0 110-3.703 1.852 1.852 0 010 3.703z" fill="#000"/><path d="M47.167 92.284c24.948 0 45.173-20.225 45.173-45.173S72.115 1.938 47.167 1.938 1.994 22.163 1.994 47.111 22.22 92.284 47.167 92.284z" stroke="#000" stroke-width="3.075" stroke-linecap="round" stroke-linejoin="round"/><path d="M47.167 53.395a6.284 6.284 0 100-12.568 6.284 6.284 0 000 12.568z" stroke="#000" stroke-width="3.075" stroke-linecap="round" stroke-linejoin="round"/><path d="M46.704 61.772c8.243 0 14.926-6.683 14.926-14.926S54.947 31.92 46.704 31.92c-8.244 0-14.926 6.682-14.926 14.926 0 8.243 6.682 14.926 14.926 14.926z" stroke="#000" stroke-width="3.075" stroke-linecap="round" stroke-linejoin="round"/><path d="M16.315 67.08a1.852 1.852 0 110-3.703 1.852 1.852 0 010 3.703z" fill="#000"/><path d="M97.895 52.667a45.172 45.172 0 01-45.173 45.172c-14.05 0-25.987-5.796-34.271-15.864a45.173 45.173 0 0063.648-63.543c10.012 8.284 15.796 20.204 15.796 34.235z" fill="#000" stroke="#000" stroke-width="3.075" stroke-linecap="round" stroke-linejoin="round"/><path d="M63.864 56.994a14.927 14.927 0 01-20.32 5.716c-1.945-1.093-1.52-.47-2.748-2.167A14.92 14.92 0 0058.784 38.08c.47.198-1.457-1.383-1-1.123 7.191 4.03 10.117 12.846 6.08 20.037z" fill="#000" stroke="#000" stroke-width="1.23" stroke-linecap="round" stroke-linejoin="round"/><path d="M67.901 76.37c-5.37 5.371-12.345 6.976-20.463 7.013h-.617c-8.383 0-15.95-2.5-20.463-7.019-6.79-6.79 3.957-12.993 12.963-16.512a14.926 14.926 0 0014.957-.197l.574.197c9.117 3.525 19.84 9.74 13.05 16.519zM39.383 33.84a14.907 14.907 0 00-7.593 13.536c-7.493 6.167-18.166 12.5-20.759 3.241-2.062-7.314-.34-14.197 3.593-21.32l.29-.52c4.099-7.29 10.278-12.623 16.426-14.351 9.228-2.599 9.401 9.802 8.043 19.414zm42.975 16.808c-2.599 9.26-13.253 2.92-20.74-3.24A14.908 14.908 0 0054 33.828c-1.352-9.606-1.179-21.988 8.025-19.396 6.142 1.728 12.03 7.093 16.136 14.408l.284.518c3.963 7.099 5.969 13.982 3.913 21.29z" fill="#000" stroke="#000" stroke-width="1.23" stroke-linecap="round" stroke-linejoin="round"/><path d="M41.204 49.08a15.259 15.259 0 018.216-8.216l-5.716 1.013-2.469 3.265" fill="#000"/><path d="M41.204 49.08a15.259 15.259 0 018.216-8.216l-5.716 1.013-2.469 3.265" stroke="#000" stroke-width="1.23" stroke-linecap="round" stroke-linejoin="round"/></g><defs><clipPath id="clip0"><path fill="#fff" d="M0 0h100v99.383H0z"/></clipPath></defs></svg>