<svg width="18" height="14" fill="none" xmlns="http://www.w3.org/2000/svg"><path d="M16.253 3.66c.01.142.01.29.01.436 0 4.446-3.508 9.566-9.915 9.566-1.976 0-3.808-.554-5.351-1.508.282.03.552.043.84.043 1.631 0 3.13-.533 4.325-1.436-1.53-.03-2.816-.999-3.255-2.332.536.076 1.02.076 1.571-.06a3.505 3.505 0 01-2.005-1.17 3.29 3.29 0 01-.783-2.131v-.042a3.58 3.58 0 001.571.427 3.411 3.411 0 01-1.14-1.212 3.273 3.273 0 01-.412-1.587c0-.627.169-1.199.473-1.696a9.832 9.832 0 003.204 2.496c1.238.606 2.593.954 3.979 1.02C8.872 2.188 10.64.338 12.768.338c1.004 0 1.907.405 2.544 1.06a7.034 7.034 0 002.211-.809 3.372 3.372 0 01-1.53 1.85A7.084 7.084 0 0018 1.915a7.17 7.17 0 01-1.747 1.745z" fill="#fff"/></svg>