<svg width="252" height="191" fill="none" xmlns="http://www.w3.org/2000/svg"><path d="M3.6.677c1.988 0 3.6 1.705 3.6 3.807S5.588 8.29 3.6 8.29 0 6.586 0 4.484C0 2.382 1.612.677 3.6.677zm0 45.678c1.988 0 3.6 1.704 3.6 3.806 0 2.102-1.612 3.807-3.6 3.807S0 52.263 0 50.16s1.612-3.806 3.6-3.806zm0 45.677c1.988 0 3.6 1.705 3.6 3.807s-1.612 3.806-3.6 3.806S0 97.941 0 95.84c0-2.102 1.612-3.807 3.6-3.807zm0 45.678c1.988 0 3.6 1.704 3.6 3.806 0 2.102-1.612 3.807-3.6 3.807S0 143.618 0 141.516s1.612-3.806 3.6-3.806zm0 45.677c1.988 0 3.6 1.704 3.6 3.807 0 2.102-1.612 3.806-3.6 3.806S0 189.296 0 187.194c0-2.103 1.612-3.807 3.6-3.807zM25.2 23.516c1.988 0 3.6 1.704 3.6 3.807 0 2.102-1.612 3.806-3.6 3.806s-3.6-1.704-3.6-3.806c0-2.103 1.612-3.807 3.6-3.807zm0 45.678c1.988 0 3.6 1.704 3.6 3.806 0 2.102-1.612 3.806-3.6 3.806S21.6 75.103 21.6 73c0-2.102 1.612-3.806 3.6-3.806zm0 45.677c1.988 0 3.6 1.704 3.6 3.806 0 2.103-1.612 3.807-3.6 3.807s-3.6-1.704-3.6-3.807c0-2.102 1.612-3.806 3.6-3.806zm0 45.677c1.988 0 3.6 1.705 3.6 3.807s-1.612 3.806-3.6 3.806-3.6-1.704-3.6-3.806c0-2.102 1.612-3.807 3.6-3.807zM46.8.677c1.988 0 3.6 1.705 3.6 3.807S48.788 8.29 46.8 8.29s-3.6-1.704-3.6-3.806c0-2.102 1.612-3.807 3.6-3.807zm0 45.678c1.988 0 3.6 1.704 3.6 3.806 0 2.102-1.612 3.807-3.6 3.807s-3.6-1.705-3.6-3.807 1.612-3.806 3.6-3.806zm0 45.677c1.988 0 3.6 1.705 3.6 3.807s-1.612 3.806-3.6 3.806-3.6-1.704-3.6-3.806c0-2.102 1.612-3.807 3.6-3.807zm0 45.678c1.988 0 3.6 1.704 3.6 3.806 0 2.102-1.612 3.807-3.6 3.807s-3.6-1.705-3.6-3.807 1.612-3.806 3.6-3.806zm0 45.677c1.988 0 3.6 1.704 3.6 3.807 0 2.102-1.612 3.806-3.6 3.806s-3.6-1.704-3.6-3.806c0-2.103 1.612-3.807 3.6-3.807zM68.4 23.516c1.988 0 3.6 1.704 3.6 3.807 0 2.102-1.612 3.806-3.6 3.806s-3.6-1.704-3.6-3.806c0-2.103 1.612-3.807 3.6-3.807zm0 45.678c1.988 0 3.6 1.704 3.6 3.806 0 2.102-1.612 3.806-3.6 3.806S64.8 75.103 64.8 73c0-2.102 1.612-3.806 3.6-3.806zm0 45.677c1.988 0 3.6 1.704 3.6 3.806 0 2.103-1.612 3.807-3.6 3.807s-3.6-1.704-3.6-3.807c0-2.102 1.612-3.806 3.6-3.806zm0 45.677c1.988 0 3.6 1.705 3.6 3.807s-1.612 3.806-3.6 3.806-3.6-1.704-3.6-3.806c0-2.102 1.612-3.807 3.6-3.807zM90 .677c1.988 0 3.6 1.705 3.6 3.807S91.988 8.29 90 8.29s-3.6-1.704-3.6-3.806c0-2.102 1.612-3.807 3.6-3.807zm0 45.678c1.988 0 3.6 1.704 3.6 3.806 0 2.102-1.612 3.807-3.6 3.807s-3.6-1.705-3.6-3.807 1.612-3.806 3.6-3.806zm0 45.677c1.988 0 3.6 1.705 3.6 3.807s-1.612 3.806-3.6 3.806-3.6-1.704-3.6-3.806c0-2.102 1.612-3.807 3.6-3.807zm0 45.678c1.988 0 3.6 1.704 3.6 3.806 0 2.102-1.612 3.807-3.6 3.807s-3.6-1.705-3.6-3.807 1.612-3.806 3.6-3.806zm0 45.677c1.988 0 3.6 1.704 3.6 3.807 0 2.102-1.612 3.806-3.6 3.806s-3.6-1.704-3.6-3.806c0-2.103 1.612-3.807 3.6-3.807zm21.6-159.871c1.988 0 3.6 1.704 3.6 3.807 0 2.102-1.612 3.806-3.6 3.806s-3.6-1.704-3.6-3.806c0-2.103 1.612-3.807 3.6-3.807zm0 45.678c1.988 0 3.6 1.704 3.6 3.806 0 2.102-1.612 3.806-3.6 3.806S108 75.103 108 73c0-2.102 1.612-3.806 3.6-3.806zm0 45.677c1.988 0 3.6 1.704 3.6 3.806 0 2.103-1.612 3.807-3.6 3.807s-3.6-1.704-3.6-3.807c0-2.102 1.612-3.806 3.6-3.806zm0 45.677c1.988 0 3.6 1.705 3.6 3.807s-1.612 3.806-3.6 3.806-3.6-1.704-3.6-3.806c0-2.102 1.612-3.807 3.6-3.807zM133.2.677c1.988 0 3.6 1.705 3.6 3.807s-1.612 3.806-3.6 3.806-3.6-1.704-3.6-3.806c0-2.102 1.612-3.807 3.6-3.807zm0 45.678c1.988 0 3.6 1.704 3.6 3.806 0 2.102-1.612 3.807-3.6 3.807s-3.6-1.705-3.6-3.807 1.612-3.806 3.6-3.806zm0 45.677c1.988 0 3.6 1.705 3.6 3.807s-1.612 3.806-3.6 3.806-3.6-1.704-3.6-3.806c0-2.102 1.612-3.807 3.6-3.807zm0 45.678c1.988 0 3.6 1.704 3.6 3.806 0 2.102-1.612 3.807-3.6 3.807s-3.6-1.705-3.6-3.807 1.612-3.806 3.6-3.806zm0 45.677c1.988 0 3.6 1.704 3.6 3.807 0 2.102-1.612 3.806-3.6 3.806s-3.6-1.704-3.6-3.806c0-2.103 1.612-3.807 3.6-3.807zm21.6-159.871c1.988 0 3.6 1.704 3.6 3.807 0 2.102-1.612 3.806-3.6 3.806s-3.6-1.704-3.6-3.806c0-2.103 1.612-3.807 3.6-3.807zm0 45.678c1.988 0 3.6 1.704 3.6 3.806 0 2.102-1.612 3.806-3.6 3.806s-3.6-1.704-3.6-3.806c0-2.102 1.612-3.806 3.6-3.806zm0 45.677c1.988 0 3.6 1.704 3.6 3.806 0 2.103-1.612 3.807-3.6 3.807s-3.6-1.704-3.6-3.807c0-2.102 1.612-3.806 3.6-3.806zm0 45.677c1.988 0 3.6 1.705 3.6 3.807s-1.612 3.806-3.6 3.806-3.6-1.704-3.6-3.806c0-2.102 1.612-3.807 3.6-3.807zM176.4.677c1.988 0 3.6 1.705 3.6 3.807s-1.612 3.806-3.6 3.806-3.6-1.704-3.6-3.806c0-2.102 1.612-3.807 3.6-3.807zm0 45.678c1.988 0 3.6 1.704 3.6 3.806 0 2.102-1.612 3.807-3.6 3.807s-3.6-1.705-3.6-3.807 1.612-3.806 3.6-3.806zm0 45.677c1.988 0 3.6 1.705 3.6 3.807s-1.612 3.806-3.6 3.806-3.6-1.704-3.6-3.806c0-2.102 1.612-3.807 3.6-3.807zm0 45.678c1.988 0 3.6 1.704 3.6 3.806 0 2.102-1.612 3.807-3.6 3.807s-3.6-1.705-3.6-3.807 1.612-3.806 3.6-3.806zm0 45.677c1.988 0 3.6 1.704 3.6 3.807 0 2.102-1.612 3.806-3.6 3.806s-3.6-1.704-3.6-3.806c0-2.103 1.612-3.807 3.6-3.807zM198 23.516c1.988 0 3.6 1.704 3.6 3.807 0 2.102-1.612 3.806-3.6 3.806s-3.6-1.704-3.6-3.806c0-2.103 1.612-3.807 3.6-3.807zm0 45.678c1.988 0 3.6 1.704 3.6 3.806 0 2.102-1.612 3.806-3.6 3.806s-3.6-1.704-3.6-3.806c0-2.102 1.612-3.806 3.6-3.806zm0 45.677c1.988 0 3.6 1.704 3.6 3.806 0 2.103-1.612 3.807-3.6 3.807s-3.6-1.704-3.6-3.807c0-2.102 1.612-3.806 3.6-3.806zm0 45.677c1.988 0 3.6 1.705 3.6 3.807s-1.612 3.806-3.6 3.806-3.6-1.704-3.6-3.806c0-2.102 1.612-3.807 3.6-3.807zM219.6.677c1.988 0 3.6 1.705 3.6 3.807s-1.612 3.806-3.6 3.806-3.6-1.704-3.6-3.806c0-2.102 1.612-3.807 3.6-3.807zm0 45.678c1.988 0 3.6 1.704 3.6 3.806 0 2.102-1.612 3.807-3.6 3.807s-3.6-1.705-3.6-3.807 1.612-3.806 3.6-3.806zm0 45.677c1.988 0 3.6 1.705 3.6 3.807s-1.612 3.806-3.6 3.806-3.6-1.704-3.6-3.806c0-2.102 1.612-3.807 3.6-3.807zm0 45.678c1.988 0 3.6 1.704 3.6 3.806 0 2.102-1.612 3.807-3.6 3.807s-3.6-1.705-3.6-3.807 1.612-3.806 3.6-3.806zm0 45.677c1.988 0 3.6 1.704 3.6 3.807 0 2.102-1.612 3.806-3.6 3.806s-3.6-1.704-3.6-3.806c0-2.103 1.612-3.807 3.6-3.807zm21.6-159.871c1.988 0 3.6 1.704 3.6 3.807 0 2.102-1.612 3.806-3.6 3.806s-3.6-1.704-3.6-3.806c0-2.103 1.612-3.807 3.6-3.807zm0 45.678c1.988 0 3.6 1.704 3.6 3.806 0 2.102-1.612 3.806-3.6 3.806s-3.6-1.704-3.6-3.806c0-2.102 1.612-3.806 3.6-3.806zm0 45.677c1.988 0 3.6 1.704 3.6 3.806 0 2.103-1.612 3.807-3.6 3.807s-3.6-1.704-3.6-3.807c0-2.102 1.612-3.806 3.6-3.806zm0 45.677c1.988 0 3.6 1.705 3.6 3.807s-1.612 3.806-3.6 3.806-3.6-1.704-3.6-3.806c0-2.102 1.612-3.807 3.6-3.807zM262.8.677c1.988 0 3.6 1.705 3.6 3.807s-1.612 3.806-3.6 3.806-3.6-1.704-3.6-3.806c0-2.102 1.612-3.807 3.6-3.807zm0 45.678c1.988 0 3.6 1.704 3.6 3.806 0 2.102-1.612 3.807-3.6 3.807s-3.6-1.705-3.6-3.807 1.612-3.806 3.6-3.806zm0 45.677c1.988 0 3.6 1.705 3.6 3.807s-1.612 3.806-3.6 3.806-3.6-1.704-3.6-3.806c0-2.102 1.612-3.807 3.6-3.807zm0 45.678c1.988 0 3.6 1.704 3.6 3.806 0 2.102-1.612 3.807-3.6 3.807s-3.6-1.705-3.6-3.807 1.612-3.806 3.6-3.806zm0 45.677c1.988 0 3.6 1.704 3.6 3.807 0 2.102-1.612 3.806-3.6 3.806s-3.6-1.704-3.6-3.806c0-2.103 1.612-3.807 3.6-3.807zm21.6-159.871c1.988 0 3.6 1.704 3.6 3.807 0 2.102-1.612 3.806-3.6 3.806s-3.6-1.704-3.6-3.806c0-2.103 1.612-3.807 3.6-3.807zm0 45.678c1.988 0 3.6 1.704 3.6 3.806 0 2.102-1.612 3.806-3.6 3.806s-3.6-1.704-3.6-3.806c0-2.102 1.612-3.806 3.6-3.806zm0 45.677c1.988 0 3.6 1.704 3.6 3.806 0 2.103-1.612 3.807-3.6 3.807s-3.6-1.704-3.6-3.807c0-2.102 1.612-3.806 3.6-3.806zm0 45.677c1.988 0 3.6 1.705 3.6 3.807s-1.612 3.806-3.6 3.806-3.6-1.704-3.6-3.806c0-2.102 1.612-3.807 3.6-3.807z" fill="#333"/></svg>